<svg xmlns="http://www.w3.org/2000/svg" viewBox="0 0 21.15 22.1"><defs><style>.cls-1{fill:#fff;}</style></defs><g id="Layer_2" data-name="Layer 2"><g id="Capa_1" data-name="Capa 1"><path class="cls-1" d="M2.37,12c0-1.59.43-3,2.05-3.74a3,3,0,0,1,3.74,1c.44.55.62.36,1-.08,1.45-1.59,3.07-1.77,4.68-.46.63.52.9.35,1.4-.07a2.88,2.88,0,0,1,3.63-.2,3.08,3.08,0,0,1,1.33,3.42,1.58,1.58,0,0,1-1.69,1.5,1.14,1.14,0,0,1-1-.41c-.32-.44.05-.65.3-.9a1.16,1.16,0,0,0,.2-1.67,1,1,0,0,0-1.24-.4c-.67.25-.75.79-.75,1.4s0,1,0,1.56c0,1.1-.38,1.66-1.51,1.1-.69-.34-1.17.29-1.79.24a8.29,8.29,0,0,1-2.32-.2c-.61-.22-1.21-1.6-1.95.06-.2.47-1.21,0-1.57-.72s-2.08-.76-2.31-.13-.44,1.18-1.27.9-.93-.92-1-1.63C2.36,12.38,2.37,12.17,2.37,12Zm10.14.41c.48-.17,1.27.37,1.58-.43s-.67-.72-1-1.12c-.15-.2-.25-.48-.44-.62a1.25,1.25,0,0,0-2,.33C10.06,11.5,10.88,12.35,12.51,12.37ZM6.7,10.84a.94.94,0,0,0-1-.94c-.93-.06-1.27.55-1.41,1.32-.08.44,0,.95.59.8A3.1,3.1,0,0,0,6.7,10.84Z"/><path class="cls-1" d="M21.13,15.18a3.26,3.26,0,0,1-.85,2.13,11.15,11.15,0,0,1-19-1.23A11,11,0,0,1,6.15,1.27C12-1.33,16.52.11,20.43,5.19a2.23,2.23,0,0,1,.65,2.07c-.63-.26-.71-.87-1-1.32A10.21,10.21,0,0,0,8.3,1.47,10.17,10.17,0,0,0,9.46,21.06,10.16,10.16,0,0,0,20,16.47c.28-.44.54-.89.82-1.33Z"/></g></g></svg>