<svg xmlns="http://www.w3.org/2000/svg" viewBox="0 0 48.32 14.52"><defs><style>.cls-1{fill:#fff;}</style></defs><g id="Layer_2" data-name="Layer 2"><g id="Capa_1" data-name="Capa 1"><path class="cls-1" d="M7.26,12.2A4.94,4.94,0,0,1,3.73,3.81,4.88,4.88,0,0,1,7.2,2.33h.06a4.94,4.94,0,0,1,.06,9.88Zm0-9.79H7.2a4.85,4.85,0,0,0,.06,9.7h.06a4.85,4.85,0,0,0-.06-9.7Z"/><rect class="cls-1" x="6.9" y="0.11" width="0.55" height="0.55" transform="translate(1.88 5.25) rotate(-45.68)"/><rect class="cls-1" x="8.1" y="0.21" width="0.55" height="0.55" transform="translate(1.29 4.97) rotate(-35.65)"/><rect class="cls-1" x="9.27" y="0.5" width="0.55" height="0.55" transform="translate(0.6 4.2) rotate(-25.61)"/><rect class="cls-1" x="10.36" y="1" width="0.55" height="0.55" transform="translate(0.05 2.9) rotate(-15.57)"/><rect class="cls-1" x="11.35" y="1.68" width="0.55" height="0.55" transform="translate(-0.13 1.13) rotate(-5.54)"/><rect class="cls-1" x="12.21" y="2.52" width="0.55" height="0.55" transform="translate(8.72 15.02) rotate(-85.5)"/><rect class="cls-1" x="12.91" y="3.5" width="0.55" height="0.55" transform="matrix(0.25, -0.97, 0.97, 0.25, 6.22, 15.59)"/><rect class="cls-1" x="13.42" y="4.59" width="0.55" height="0.55" transform="translate(3.58 15.3) rotate(-65.43)"/><rect class="cls-1" x="13.74" y="5.74" width="0.55" height="0.55" transform="translate(1.1 14.14) rotate(-55.4)"/><rect class="cls-1" x="13.85" y="6.94" width="0.55" height="0.55" transform="translate(-0.93 12.2) rotate(-45.36)"/><rect class="cls-1" x="13.76" y="8.14" width="0.55" height="0.55" transform="translate(-2.28 9.66) rotate(-35.33)"/><rect class="cls-1" x="13.45" y="9.3" width="0.55" height="0.55" transform="translate(-2.78 6.78) rotate(-25.29)"/><rect class="cls-1" x="12.95" y="10.39" width="0.55" height="0.55" transform="translate(-2.34 3.86) rotate(-15.26)"/><rect class="cls-1" x="12.26" y="11.38" width="0.55" height="0.55" transform="translate(-1.01 1.19) rotate(-5.22)"/><rect class="cls-1" x="11.42" y="12.23" width="0.55" height="0.55" transform="translate(-1.75 23.11) rotate(-85.18)"/><rect class="cls-1" x="10.43" y="12.92" width="0.55" height="0.55" transform="translate(-4.79 20.17) rotate(-75.15)"/><rect class="cls-1" x="9.35" y="13.44" width="0.55" height="0.55" transform="translate(-6.86 16.67) rotate(-65.11)"/><rect class="cls-1" x="8.19" y="13.75" width="0.55" height="0.55" transform="translate(-7.88 12.93) rotate(-55.08)"/><rect class="cls-1" x="6.99" y="13.85" width="0.55" height="0.55" transform="translate(-7.87 9.29) rotate(-45.04)"/><rect class="cls-1" x="5.79" y="13.75" width="0.55" height="0.55" transform="translate(-6.95 6.02) rotate(-35.01)"/><rect class="cls-1" x="4.63" y="13.44" width="0.55" height="0.55" transform="translate(-5.33 3.35) rotate(-24.97)"/><rect class="cls-1" x="3.54" y="12.93" width="0.55" height="0.55" transform="translate(-3.27 1.43) rotate(-14.94)"/><rect class="cls-1" x="2.56" y="12.24" width="0.55" height="0.55" transform="matrix(1, -0.09, 0.09, 1, -1.06, 0.29)"/><rect class="cls-1" x="1.71" y="11.39" width="0.55" height="0.55" transform="translate(-9.81 12.6) rotate(-84.86)"/><rect class="cls-1" x="1.02" y="10.4" width="0.55" height="0.55" transform="translate(-9.35 9.14) rotate(-74.83)"/><rect class="cls-1" x="0.52" y="9.31" width="0.55" height="0.55" transform="translate(-8.22 6.22) rotate(-64.79)"/><rect class="cls-1" x="0.21" y="8.15" width="0.55" height="0.55" transform="translate(-6.67 3.96) rotate(-54.76)"/><rect class="cls-1" x="0.11" y="6.95" width="0.55" height="0.55" transform="translate(-4.97 2.37) rotate(-44.72)"/><rect class="cls-1" x="0.23" y="5.75" width="0.55" height="0.55" transform="translate(-3.34 1.36) rotate(-34.69)"/><rect class="cls-1" x="0.54" y="4.6" width="0.55" height="0.55" transform="translate(-1.96 0.79) rotate(-24.65)"/><rect class="cls-1" x="1.06" y="3.51" width="0.55" height="0.55" transform="translate(-0.91 0.46) rotate(-14.62)"/><rect class="cls-1" x="1.75" y="2.53" width="0.55" height="0.55" transform="translate(-0.22 0.17) rotate(-4.58)"/><rect class="cls-1" x="2.61" y="1.69" width="0.55" height="0.55" transform="translate(0.66 4.65) rotate(-84.54)"/><rect class="cls-1" x="3.6" y="1.01" width="0.55" height="0.55" transform="translate(1.61 4.68) rotate(-74.51)"/><rect class="cls-1" x="4.69" y="0.51" width="0.55" height="0.55" transform="translate(2.12 4.93) rotate(-64.47)"/><rect class="cls-1" x="5.86" y="0.21" width="0.55" height="0.55" transform="translate(2.17 5.19) rotate(-54.44)"/><path class="cls-1" d="M7.19,1.08a6.18,6.18,0,1,0,6.25,6.11A6.18,6.18,0,0,0,7.19,1.08ZM13,5.74l0,.14-.3.38.42.24s0,.1,0,.15h0l-.62-.37L13,5.73Zm-.35-1,.06.13-.23.43.45.17s0,.09,0,.14h0l-.67-.25.34-.63ZM12.4,7.19A5.14,5.14,0,1,1,7.2,2.11,5.14,5.14,0,0,1,12.4,7.19Zm-.28-3.33L12.2,4l-.15.46.47.09a.83.83,0,0,1,.07.13v0l-.7-.14.22-.68Zm-.67-.79a.94.94,0,0,1,.1.1l-.07.48H12a1,1,0,0,1,.08.11v0h-.72l.11-.71Zm-.79-.67.12.09V3l.48-.08.1.1V3l-.72.12,0-.73Zm-.9-.51L9.89,2l.1.47.45-.16.13.08v0l-.68.24-.15-.71Zm-1-.36.14,0L9.1,2l.43-.24.13.06h0L9,2.21l-.27-.67Zm-1-.18.14,0,.25.41.38-.31.13,0,0,0L8.13,2l-.38-.62Zm-1.94.16.14,0,.37.31.26-.41h.12l0,0v0h.12l.32.36.32-.37h.15l-.46.55-.46-.52L6.38,2l-.56-.46Zm-1,.33L5,1.79,5.4,2l.18-.45.14,0h0l-.26.67-.63-.35Zm-.91.51.12-.08.46.16L4.61,2l.13-.06h0l-.14.7-.68-.24ZM3.14,3l.1-.1L3.72,3V2.5l.12-.09h0v.73L3.13,3Zm-.59.67H3L3,3.19l.1-.11h0l.11.71H2.46ZM2,4.55l.48-.09L2.31,4l.08-.12h0l.23.69-.71.13h0Zm-.39,1,.45-.18-.23-.42.06-.13h0l.35.63-.68.26v0A.65.65,0,0,1,1.6,5.51Zm-.22,1,.41-.25-.3-.38a.65.65,0,0,1,0-.13v0L2,6.31l-.62.37v0S1.37,6.57,1.38,6.52Zm0,1,.37-.32-.37-.32a.71.71,0,0,0,0-.14v0l.55.48-.55.47h0S1.34,7.6,1.34,7.56Zm.18,1.16a.57.57,0,0,1,0-.14l.31-.37L1.37,8s0-.1,0-.15h0L2,8.17l-.45.56Zm.34,1L1.8,9.57,2,9.15,1.59,9s0-.09-.05-.14h0l.67.26-.35.63Zm.51.9a.5.5,0,0,1-.08-.12L2.44,10,2,9.93l-.06-.12v0l.71.14-.24.68Zm.66.81-.11-.11L3,10.82H2.52l-.09-.11v0l.72,0L3,11.41Zm.78.67L3.7,12v-.48l-.48.08a.52.52,0,0,0-.11-.1v0l.72-.11v.72Zm.89.53-.13-.07-.09-.47L4,12.23l-.12-.08v0l.68-.23.14.71Zm1,.36-.13,0-.18-.45-.42.23-.13-.05v0l.63-.35.26.68Zm1,.19-.14,0-.25-.41L5.92,13l-.13,0h0l.57-.46.37.62Zm1,0H7.59l-.32-.36L7,13.18H6.8l.47-.54.47.54Zm1-.17-.14,0-.37-.3L8,13.14l-.15,0h0l.37-.62.56.45Zm1-.35-.13.06-.43-.23L9,12.93l-.14,0h0l.26-.67.63.34Zm.9-.51-.12.08-.46-.16-.09.48-.13.06h0l.13-.71.69.23Zm.8-.67-.11.1-.47-.07V12l-.12.08h0v-.72l.71.11ZM12,10.8h-.48l.08.48-.1.1h0l-.11-.72h.72Zm.55-.88-.48.09.16.46-.08.12h0l-.24-.69.71-.14v0Zm.38-1-.45.18.24.42-.06.14h0l-.35-.63L13,8.8v0A.65.65,0,0,1,12.94,9Zm.21-1-.41.25.3.38,0,.13v0l-.46-.56.62-.38v0S13.15,7.89,13.15,7.94Zm0-.24-.54-.48.54-.47h0a.66.66,0,0,0,0,.14l-.36.32.36.32a.61.61,0,0,1,0,.14Z"/><rect class="cls-1" x="6.68" y="6.67" width="1.15" height="1.15" transform="translate(-3 7.25) rotate(-45)"/><rect class="cls-1" x="6.68" y="3.06" width="1.15" height="1.15" transform="translate(-0.45 6.2) rotate(-45)"/><rect class="cls-1" x="6.68" y="10.31" width="1.15" height="1.15" transform="translate(-5.57 8.32) rotate(-45)"/><rect class="cls-1" x="3.08" y="6.67" width="1.15" height="1.15" transform="translate(-4.05 4.71) rotate(-45)"/><rect class="cls-1" x="10.29" y="6.67" width="1.15" height="1.15" transform="translate(-1.94 9.8) rotate(-45)"/><polygon class="cls-1" points="5.48 3.68 5.48 5.46 3.7 5.46 5.48 7.25 7.26 5.46 5.48 3.68"/><polygon class="cls-1" points="9.05 3.68 9.05 5.46 10.83 5.46 9.05 7.25 7.26 5.46 9.05 3.68"/><polygon class="cls-1" points="5.48 10.81 5.48 9.03 3.7 9.03 5.48 7.25 7.26 9.03 5.48 10.81"/><polygon class="cls-1" points="9.05 10.81 9.05 9.03 10.83 9.03 9.05 7.25 7.26 9.03 9.05 10.81"/><path class="cls-1" d="M19.22,12.66H17.88v-4h1.3v.52H18.4v1.11H19v.51H18.4v1.37h.82Z"/><path class="cls-1" d="M21.17,8.64l.5,2v-2h.52v4h-.61l-.52-2.16v2.16h-.52v-4Z"/><path class="cls-1" d="M23.85,9.16h-.46V8.64h1.44v.52h-.46v3.5h-.52Z"/><path class="cls-1" d="M27.37,12.66H26v-4h1.29v.52h-.77v1.11h.54v.51h-.54v1.37h.81Z"/><path class="cls-1" d="M29.65,11h-.44v1.7H28.7v-4h1.06a.35.35,0,0,1,.35.34v1.41a.28.28,0,0,1-.18.28.34.34,0,0,1,.24.34v1.65h-.52Zm-.44-.52h.38V9.16h-.38Z"/><path class="cls-1" d="M31.52,8.64h1.13A.34.34,0,0,1,33,9V10.5a.34.34,0,0,1-.34.33H32v1.83h-.52v-4Zm.95.52H32v1.16h.43Z"/><path class="cls-1" d="M35.21,11h-.43v1.7h-.52v-4h1.06a.35.35,0,0,1,.35.34v1.41a.28.28,0,0,1-.18.28.34.34,0,0,1,.24.34v1.65h-.52Zm-.43-.52h.37V9.16h-.37Z"/><path class="cls-1" d="M37.08,8.64h.52v4h-.52Z"/><path class="cls-1" d="M39.5,11.45v.7h.43v-1.3h-.61a.34.34,0,0,1-.34-.34V9a.33.33,0,0,1,.34-.34h.79a.33.33,0,0,1,.34.34v.84h-.52V9.16H39.5v1.17h.61a.34.34,0,0,1,.34.34v1.65a.34.34,0,0,1-.34.34h-.79a.34.34,0,0,1-.34-.34v-.87Z"/><path class="cls-1" d="M41.83,8.64h.52v4h-.52Z"/><path class="cls-1" d="M44.36,8.64l.5,2v-2h.51v4h-.6l-.52-2.16v2.16h-.52v-4Z"/><path class="cls-1" d="M47.71,9.85V9.16h-.44v3h.44v-.93h-.17V10.7h.69v1.62a.35.35,0,0,1-.35.34H47.1a.34.34,0,0,1-.34-.34V9a.35.35,0,0,1,.34-.34h.78a.35.35,0,0,1,.35.34v.87Z"/><path class="cls-1" d="M19.63,1.94a2.42,2.42,0,0,1,1.66.64.13.13,0,0,1,0,.19L21,3.08c0,.06-.11.06-.17,0a1.85,1.85,0,0,0-1.18-.46,1.76,1.76,0,0,0-1.73,1.79,1.75,1.75,0,0,0,1.73,1.77,1.86,1.86,0,0,0,1.18-.45.14.14,0,0,1,.17,0L21.3,6a.14.14,0,0,1,0,.19,2.37,2.37,0,0,1-1.67.66,2.47,2.47,0,1,1,0-4.94Z"/><path class="cls-1" d="M24.74,5.18,23.9,3.3h0L23,5.18l-.26.59-.42.94a.17.17,0,0,1-.16.1h-.43a.12.12,0,0,1-.12-.17L23.74,2a.17.17,0,0,1,.11-.08h.07A.16.16,0,0,1,24,2l2.09,4.62a.12.12,0,0,1-.11.17h-.44a.15.15,0,0,1-.15-.1L25,5.77Z"/><path class="cls-1" d="M32.13,5.18,31.28,3.3h0l-.84,1.88-.27.59c-.13.32-.28.63-.41.94a.17.17,0,0,1-.16.1h-.43A.12.12,0,0,1,29,6.64L31.13,2a.17.17,0,0,1,.11-.08h.07a.16.16,0,0,1,.12.08l2.09,4.62a.12.12,0,0,1-.12.17H33a.17.17,0,0,1-.16-.1l-.42-.94Z"/><path class="cls-1" d="M46.91,5.18,46.07,3.3h0l-.84,1.88-.26.59-.42.94a.17.17,0,0,1-.16.1h-.43a.12.12,0,0,1-.12-.17L45.91,2A.17.17,0,0,1,46,1.94h.07a.16.16,0,0,1,.12.08L48.3,6.64a.12.12,0,0,1-.11.17h-.44a.15.15,0,0,1-.15-.1l-.43-.94Z"/><path class="cls-1" d="M27.22,2.66H26.1A.13.13,0,0,1,26,2.53V2.14A.13.13,0,0,1,26.1,2h2.95a.13.13,0,0,1,.13.13v.39a.13.13,0,0,1-.13.13H27.94v4a.14.14,0,0,1-.13.13h-.46a.13.13,0,0,1-.13-.13Z"/><path class="cls-1" d="M33.59,2.18A.12.12,0,0,1,33.71,2h.46a.13.13,0,0,1,.12.1l.83,3.15h0L36.27,2a.12.12,0,0,1,.12-.08h.12a.14.14,0,0,1,.12.08l1.13,3.24h0l.81-3.15a.15.15,0,0,1,.13-.1h.46a.12.12,0,0,1,.12.17L38,6.79a.13.13,0,0,1-.12.09h-.11a.14.14,0,0,1-.12-.07L36.46,3.4h0L35.23,6.81a.11.11,0,0,1-.11.07H35a.14.14,0,0,1-.13-.09Z"/><path class="cls-1" d="M40.18,2.14A.13.13,0,0,1,40.31,2h1.54a1.31,1.31,0,0,1,1.42,1.27,1.31,1.31,0,0,1-.71,1.09,1.25,1.25,0,0,1,.86,1.12,1.37,1.37,0,0,1-1.5,1.32H40.31a.13.13,0,0,1-.13-.13Zm1.74,4a.73.73,0,0,0,.74-.74.79.79,0,0,0-.85-.72h-.94V6.18ZM41.81,4.1a.69.69,0,0,0,.7-.74.66.66,0,0,0-.7-.7h-.93V4.1Z"/><ellipse class="cls-1" cx="40.99" cy="4.41" rx="1.37" ry="0.3"/><path class="cls-1" d="M23.87,6l2.07-.68a.17.17,0,0,0,.11-.2L26,4.82a.15.15,0,0,0-.19-.11l-1.91.63L22,4.8a.15.15,0,0,0-.19.12l-.09.29a.17.17,0,0,0,.11.21Z"/><path class="cls-1" d="M31.25,6l2.08-.68a.17.17,0,0,0,.11-.2l-.07-.3a.15.15,0,0,0-.19-.11l-1.91.63L29.38,4.8a.15.15,0,0,0-.19.12l-.09.29a.18.18,0,0,0,.1.21Z"/><path class="cls-1" d="M46,6l2.07-.68a.17.17,0,0,0,.11-.2l-.07-.3A.15.15,0,0,0,48,4.71l-1.91.63L44.16,4.8a.15.15,0,0,0-.19.12l-.09.29a.17.17,0,0,0,.11.21Z"/></g></g></svg>