<svg xmlns="http://www.w3.org/2000/svg" viewBox="0 0 34.94 12.44"><defs><style>.cls-1{fill:#fff;}</style></defs><g id="Layer_2" data-name="Layer 2"><g id="Capa_1" data-name="Capa 1"><path class="cls-1" d="M20.28,3.58,18.12,1.31c1.67-.3,4.1,1.31,4.29,2.78.07.5-.34.41-.61.48,0-.12,0-.3-.21-.15l.21.15c2,2.23,1.1,4.86,1,7.41-.53-1.66-.39-3.54-1.68-4.91h0c-.75-2-2.73-2.68-4.19-4l3.19.64a.93.93,0,0,0,1,.31C21,3.55,20.57,3.67,20.28,3.58Z"/><path class="cls-1" d="M24.92,4.26c1.6-.12,3-1.19,4.94-.89-1.95,1.07-4,1.71-4.94,3.71h0c-.81.37-.76,1.4-1.51,1.95a9.25,9.25,0,0,1,.26-3.83v0A.31.31,0,0,0,24,4.87l0,0a.53.53,0,0,0,.65-.32h0c.19,0,.33-.11.32-.33Z"/><path class="cls-1" d="M11.7,12.06,9,8.16l-.3.09c0,.91,0,1.81,0,2.71,0,.34.44.69,0,1a.75.75,0,0,1-.59,0C7.51,11.72,8,11.35,8,11Q8,9.4,8,7.77c0-.31-.51-.7.08-.91a.88.88,0,0,1,.95.4c.72.88,1.43,1.77,2.27,2.81a6.11,6.11,0,0,0,0-2.73c-.1-.33.07-.5.38-.5s.44.13.37.39C11.6,8.73,12,10.3,11.7,12.06Z"/><path class="cls-1" d="M16.68,11.17c-.82.77-3.23,1.14-3.67.77a.51.51,0,0,1-.17-.37,12.54,12.54,0,0,0,0-4.32c-.07-.44.34-.44.65-.45.57,0,1.14,0,1.71,0,.4,0,1,0,.89.54s-.58,0-.89,0c-.58.13-1.47-.37-1.49.79s.79.7,1.34.76c.24,0,.52,0,.69.4-.58.57-2.66-.37-2,1.51C14.23,12.07,15.45,11.27,16.68,11.17Z"/><path class="cls-1" d="M32.6,6.79c1.35,1.29,1.52,3.08,2.27,4.59.18.38,0,.61-.4.64s-.71,0-.62-.43c.19-1.07-.28-1.39-1.27-1.37s-1.48.29-1.2,1.39c.11.43-.34.44-.64.4s-.47-.21-.33-.53C31.12,9.93,31.45,8.21,32.6,6.79ZM32.55,8c-.12.63-1.09,1-.47,1.76a.76.76,0,0,0,1,0C33.56,9.07,32.83,8.58,32.55,8Z"/><path class="cls-1" d="M24.92,7.08a12.65,12.65,0,0,1,1.81-.3c.61,0,1.3,0,1.31.89-.21.3-.37.07-.52,0-.63-.37-1.45-.61-1.76.13-.4,1,.64,1,1.23,1.14a1.75,1.75,0,0,1,1.53,1.35,1.34,1.34,0,0,1-.69,1.45,2,2,0,0,1-2.32,0c.45-.39.82-.21,1.16-.23.57-.05,1-.2,1.09-.87s-.47-.82-.91-.86c-1.7-.18-2.14-1.19-1.92-2.7Z"/><path class="cls-1" d="M7.72,11.42C6.29,12.36,5.1,12,4,12c-.32,0-.18-.37-.16-.62a11.13,11.13,0,0,0,0-3.1c-.33-1.44.32-1.59,1.4-1.44.63.09,1.48-.4,1.86.7-.84.2-1.79-.58-2.35.16s-.1,1.51-.17,2.28C4.38,12.55,6.34,11,7.72,11.42Z"/><path class="cls-1" d="M3.33,7.46c-.85.37-2.11-.83-2.45.5-.44,1.75,1.49.58,2,1.27-.08.42-.37.41-.61.37C.83,9.36.63,10.12.89,11.24c.08.37.27.74-.32.78S0,11.8,0,11.24a12.25,12.25,0,0,0,0-3.42c-.16-1,.18-1.12.93-1S2.74,6.38,3.33,7.46Z"/><path class="cls-1" d="M23.58,4.8c.61-2.13,2.19-3.35,4.75-3.57-.84,1.42-2.21,2.13-3.41,3h0l-.32.33h0a.71.71,0,0,0-.65.32l0,0a1.47,1.47,0,0,1-.29,0Z"/><path class="cls-1" d="M23,2.71a1.33,1.33,0,0,1-1.25-1.5,1.3,1.3,0,0,1,2.59.09A1.34,1.34,0,0,1,23,2.71Z"/><path class="cls-1" d="M18,7.4c-.79,3.59-.14,4.47,2.71,3.87a1.62,1.62,0,0,1-2,.76,2.34,2.34,0,0,1-1.93-2A2.35,2.35,0,0,1,18,7.4Z"/><path class="cls-1" d="M21.16,7.07v1.3a2.81,2.81,0,0,0-2.71-1c.86-1.06,1.82-.27,2.73-.24Z"/><path class="cls-1" d="M24.89,10.65a.4.4,0,0,1,.39.45c0,.16-.07.32-.26.21a.67.67,0,0,1-.28-.34C24.72,10.87,24.84,10.74,24.89,10.65Z"/><path class="cls-1" d="M23.68,5.19c-.27-.07-.29-.2-.09-.39l.12.12a1.35,1.35,0,0,0,0,.29Z"/><path class="cls-1" d="M29.27,12.44l-.11-.19.19.1Z"/><path class="cls-1" d="M21.8,4.57l-.21-.15c.22-.15.19,0,.21.15Z"/><path class="cls-1" d="M24,4.89a.71.71,0,0,1,.65-.32A.53.53,0,0,1,24,4.89Z"/></g></g></svg>