<svg xmlns="http://www.w3.org/2000/svg" viewBox="0 0 79.83 39.66"><defs><style>.cls-1,.cls-2{fill:#d7d8cf;}.cls-2{fill-rule:evenodd;}</style></defs><g id="Layer_2" data-name="Layer 2"><g id="Capa_1" data-name="Capa 1"><path class="cls-1" d="M0,39.6V37.23A1.15,1.15,0,0,1,1.19,36,1,1,0,0,1,2.3,37a.86.86,0,0,1-.42.8c.31.12.48.31.48.83v1H1.88v-1c0-.35-.21-.58-.65-.58H.69v-.45h.38c.43,0,.75-.2.75-.6a.6.6,0,0,0-.63-.58.67.67,0,0,0-.71.69V39.6Z"/><path class="cls-1" d="M7.42,38H5.68A1.28,1.28,0,0,0,7,39.15h.47v.45H7A1.8,1.8,0,1,1,7,36h.38v.45H7.09a1.35,1.35,0,0,0-1.41,1.06H7.42Z"/><path class="cls-1" d="M10.29,39.6V37.2A1.16,1.16,0,0,1,11.44,36a1.14,1.14,0,0,1,1.19,1.15,1.08,1.08,0,0,1-1,1.15H11v-.46h.51a.65.65,0,0,0,.67-.69.69.69,0,1,0-1.37,0V39.6Z"/><path class="cls-1" d="M15.37,39.6V37.23A1.15,1.15,0,0,1,16.56,36a1,1,0,0,1,1.11,1,.88.88,0,0,1-.41.8c.31.12.47.31.47.83v1h-.48v-1c0-.35-.2-.58-.65-.58h-.53v-.45h.38c.42,0,.74-.2.74-.6a.6.6,0,0,0-.63-.58.66.66,0,0,0-.7.69V39.6Z"/><path class="cls-1" d="M22.79,38H21.05a1.3,1.3,0,0,0,1.27,1.18h.47v.45h-.38a1.8,1.8,0,1,1,0-3.59h.38v.45h-.32a1.37,1.37,0,0,0-1.42,1.06h1.74Z"/><path class="cls-1" d="M25.59,39.15h1.23c.42,0,.6-.16.6-.47,0-.73-1.81-.7-1.81-1.77a.89.89,0,0,1,1-.9h1.14v.45H26.53a.4.4,0,0,0-.44.43c0,.66,1.81.66,1.81,1.75a.9.9,0,0,1-1,1H25.59Z"/><path class="cls-1" d="M32.85,38H31.11a1.28,1.28,0,0,0,1.27,1.18h.47v.45h-.38a1.8,1.8,0,1,1,0-3.59h.38v.45h-.33a1.35,1.35,0,0,0-1.41,1.06h1.74Z"/><path class="cls-1" d="M35.78,39.6V36.42A.39.39,0,0,1,36.2,36c.27,0,.37.16.55.53l1.15,2.38h0V36h.48v3.28a.32.32,0,0,1-.36.34c-.24,0-.35-.07-.48-.35l-1.28-2.63h0v3Z"/><path class="cls-1" d="M41.13,36h2.26v.45H42.5V39.6H42V36.46h-.89Z"/><path class="cls-1" d="M46.06,39.6V37.32a1.23,1.23,0,1,1,2.45,0V39.6H48V38H46.74v-.45H48v-.23c0-.56-.3-.89-.74-.89s-.75.33-.75.89V39.6Z"/><path class="cls-1" d="M53.61,36.46h-.32a1.34,1.34,0,0,0-1.43,1.34,1.27,1.27,0,0,0,1.24,1.35h.51v.45H53.1a1.72,1.72,0,0,1-1.74-1.8A1.82,1.82,0,0,1,53.23,36h.38Z"/><path class="cls-1" d="M56.53,39.6V36H57V39.6Z"/><path class="cls-1" d="M61.8,36a1.86,1.86,0,1,1-1.87,1.85A1.87,1.87,0,0,1,61.8,36Zm0,3.26a1.41,1.41,0,1,0-1.37-1.41A1.38,1.38,0,0,0,61.8,39.21Z"/><path class="cls-1" d="M66.52,39.6V36.42a.39.39,0,0,1,.42-.44c.28,0,.38.16.55.53l1.15,2.38h0V36h.49v3.28a.33.33,0,0,1-.37.34c-.23,0-.35-.07-.48-.35L67,36.65h0v3Z"/><path class="cls-1" d="M74.22,38H72.48a1.28,1.28,0,0,0,1.27,1.18h.47v.45h-.38a1.8,1.8,0,1,1,0-3.59h.38v.45h-.33a1.35,1.35,0,0,0-1.41,1.06h1.74Z"/><path class="cls-1" d="M77,39.15h1.24c.42,0,.6-.16.6-.47C78.85,38,77,38,77,36.91a.89.89,0,0,1,1-.9h1.14v.45H78a.4.4,0,0,0-.44.43c0,.66,1.81.66,1.81,1.75a.9.9,0,0,1-1,1H77Z"/><path class="cls-1" d="M7.55,31.51V23.23c0-.87-.38-1.61-1.47-1.61s-1.47.74-1.47,1.61v8.28H0v-9c0-3.25,2.79-5.29,5.87-5.29a5.62,5.62,0,0,1,4,1.95,5.62,5.62,0,0,1,4-1.95c3.08,0,5.87,2,5.87,5.29v9H15.08V23.23c0-.87-.37-1.61-1.46-1.61s-1.47.74-1.47,1.61v8.28Z"/><path class="cls-1" d="M32.83,31.51V25.07c0-2.48-1.15-3.68-3.25-3.68a3.1,3.1,0,0,0-3.16,3,3,3,0,0,0,3,3.23,6.22,6.22,0,0,0,2.22-.41v3.8a5.18,5.18,0,0,1-3.14.8,7,7,0,0,1-6.73-7.3,7.32,7.32,0,0,1,7.68-7.36c4.35,0,7.94,2.35,7.94,6.78v7.54Z"/><path class="cls-1" d="M46.43,26.42l-1.75-2.76,3.77-2.48a3.06,3.06,0,0,0-1.79-.48c-1.89,0-2.93,1.92-2.93,3.59a3.38,3.38,0,0,0,3.11,3.54c1.72,0,3.42-1.53,4.11-3.14l3.31,1.7a8.54,8.54,0,0,1-7.74,5.46,7.33,7.33,0,0,1,0-14.66c3.22,0,5.35,1.72,6.85,4.45Z"/><path class="cls-1" d="M59.67,19.86h0c.69-2,2-2.33,4-2.33v4.2c-3.19.12-3.48.81-3.48,3.22v6.56h-4.6v-14h4Z"/><path class="cls-1" d="M72,26.42l-1.75-2.76L74,21.18a3.06,3.06,0,0,0-1.79-.48c-1.9,0-2.93,1.92-2.93,3.59a3.38,3.38,0,0,0,3.11,3.54c1.72,0,3.42-1.53,4.11-3.14l3.31,1.7a8.54,8.54,0,0,1-7.74,5.46,7.33,7.33,0,0,1,0-14.66c3.22,0,5.35,1.72,6.85,4.45Z"/><path class="cls-1" d="M11.06,14.76s.65-2.51,3-2.67,2.83,2.18,5.14,2.67C19.16,14.76,13.25,16.34,11.06,14.76Z"/><path class="cls-1" d="M8.89,14.76s-.64-2.51-2.95-2.67S3.1,14.27.79,14.76C.79,14.76,6.71,16.34,8.89,14.76Z"/><path class="cls-1" d="M11.06,10.7a1.79,1.79,0,0,1,1.48-1.33c1.15-.08,1.42,1.09,2.57,1.33C15.11,10.7,12.15,11.49,11.06,10.7Z"/><path class="cls-1" d="M8.89,10.7A1.79,1.79,0,0,0,7.42,9.37C6.26,9.29,6,10.46,4.84,10.7,4.84,10.7,7.8,11.49,8.89,10.7Z"/><polygon class="cls-2" points="7 7.11 6.97 7.07 6.92 7.04 6.87 7.02 6.81 6.99 6.77 6.97 6.71 6.94 6.65 6.9 6.59 6.88 6.52 6.85 6.46 6.81 6.41 6.77 6.33 6.75 6.26 6.72 6.21 6.69 6.13 6.67 6.07 6.62 5.98 6.6 5.91 6.56 5.83 6.52 5.76 6.51 5.68 6.47 5.61 6.45 5.53 6.41 5.46 6.39 5.38 6.37 5.29 6.34 5.2 6.33 5.14 6.3 5.06 6.29 4.98 6.26 4.9 6.25 4.83 6.24 4.74 6.22 4.67 6.21 4.59 6.2 4.51 6.2 4.43 6.18 4.36 6.18 4.28 6.18 4.21 6.18 4.13 6.18 4.07 6.2 4 6.21 3.94 6.22 3.87 6.22 3.81 6.25 3.74 6.26 3.68 6.3 3.62 6.33 3.55 6.36 3.5 6.38 3.46 6.42 3.4 6.46 3.35 6.52 3.31 6.55 3.27 6.6 3.22 6.67 3.19 6.73 3.15 6.78 3.13 6.86 3.09 6.93 3.07 7 3.05 7.08 3.04 7.17 3.02 7.25 3.01 7.34 3 7.42 3 7.5 3 7.58 3.01 7.64 3.02 7.71 3.04 7.77 3.05 7.84 3.07 7.89 3.11 7.94 3.13 8.01 3.16 8.06 3.21 8.1 3.23 8.15 3.28 8.19 3.33 8.24 3.38 8.27 3.42 8.3 3.48 8.34 3.54 8.38 3.6 8.41 3.64 8.43 3.73 8.46 3.79 8.49 3.85 8.51 3.92 8.53 4 8.55 4.07 8.55 4.13 8.58 4.21 8.59 4.29 8.62 4.37 8.62 4.44 8.62 4.52 8.62 4.6 8.63 4.67 8.63 4.75 8.63 4.84 8.63 4.92 8.64 5 8.63 5.07 8.63 5.15 8.63 5.24 8.63 5.33 8.62 5.41 8.62 5.48 8.62 5.56 8.59 5.63 8.59 5.7 8.58 5.77 8.56 5.86 8.55 5.92 8.54 6.01 8.53 6.07 8.51 6.15 8.51 6.21 8.5 6.26 8.49 6.32 8.47 6.39 8.46 6.45 8.43 6.5 8.42 6.56 8.41 6.62 8.41 6.66 8.39 6.71 8.37 6.75 8.36 6.8 8.33 6.85 8.32 6.89 8.3 6.94 8.29 6.99 8.28 7.02 8.25 7.06 8.25 7.12 8.24 7.15 8.23 7.2 8.21 7.24 8.2 7.27 8.19 7.32 8.17 7.34 8.17 7.38 8.15 7.41 8.14 7.43 8.12 7.47 8.1 7.5 8.1 7.54 8.07 7.55 8.07 7.61 8.03 7.64 8.01 7.69 7.98 7.71 7.95 7.74 7.91 7.75 7.88 7.76 7.84 7.76 7.8 7.75 7.76 7.73 7.71 7.7 7.67 7.68 7.62 7.64 7.59 7.62 7.56 7.6 7.54 7.56 7.5 7.54 7.46 7.5 7.43 7.46 7.41 7.42 7.38 7.38 7.34 7.33 7.32 7.28 7.28 7.24 7.24 7.18 7.21 7.13 7.17 7.06 7.15 7 7.11 7 7.11 7 7.11"/><polygon class="cls-2" points="7.71 5.05 7.69 5 7.66 4.95 7.62 4.9 7.59 4.86 7.54 4.81 7.5 4.76 7.46 4.71 7.41 4.67 7.36 4.59 7.32 4.54 7.27 4.48 7.24 4.43 7.18 4.37 7.13 4.3 7.06 4.25 7.01 4.18 6.97 4.12 6.89 4.07 6.85 4 6.79 3.94 6.72 3.89 6.66 3.83 6.59 3.77 6.53 3.72 6.47 3.65 6.41 3.6 6.33 3.55 6.28 3.5 6.22 3.44 6.15 3.38 6.08 3.34 6.02 3.29 5.94 3.24 5.88 3.2 5.81 3.15 5.75 3.11 5.67 3.07 5.6 3.03 5.54 3.02 5.48 2.98 5.41 2.95 5.33 2.92 5.27 2.91 5.2 2.88 5.13 2.87 5.07 2.86 5 2.85 4.93 2.85 4.87 2.85 4.81 2.85 4.75 2.85 4.68 2.87 4.63 2.88 4.58 2.9 4.51 2.92 4.45 2.95 4.39 2.99 4.33 3.02 4.28 3.07 4.24 3.11 4.18 3.17 4.13 3.22 4.09 3.3 4.04 3.37 4 3.44 3.96 3.51 3.92 3.57 3.9 3.65 3.87 3.72 3.85 3.78 3.84 3.85 3.83 3.92 3.83 3.99 3.83 4.04 3.83 4.12 3.84 4.18 3.85 4.25 3.87 4.3 3.89 4.37 3.92 4.43 3.95 4.48 3.97 4.54 4.01 4.59 4.04 4.65 4.09 4.69 4.12 4.76 4.17 4.81 4.22 4.86 4.28 4.9 4.32 4.95 4.37 5.02 4.44 5.05 4.51 5.09 4.57 5.15 4.63 5.2 4.7 5.24 4.75 5.28 4.83 5.32 4.9 5.35 4.97 5.39 5.04 5.43 5.12 5.47 5.19 5.5 5.26 5.54 5.33 5.58 5.41 5.6 5.49 5.64 5.56 5.68 5.63 5.69 5.7 5.72 5.77 5.76 5.86 5.78 5.92 5.8 6.01 5.83 6.08 5.85 6.15 5.87 6.22 5.9 6.29 5.93 6.36 5.94 6.43 5.95 6.5 5.96 6.56 5.99 6.62 6 6.67 6.02 6.73 6.03 6.8 6.04 6.85 6.06 6.91 6.07 6.95 6.07 7 6.07 7.05 6.08 7.09 6.09 7.14 6.09 7.19 6.11 7.24 6.11 7.28 6.12 7.32 6.13 7.36 6.13 7.41 6.13 7.46 6.15 7.49 6.15 7.54 6.15 7.57 6.15 7.62 6.16 7.66 6.16 7.69 6.16 7.71 6.16 7.76 6.17 7.8 6.17 7.82 6.17 7.85 6.17 7.89 6.17 7.91 6.16 7.95 6.16 7.96 6.16 8 6.16 8.04 6.15 8.08 6.13 8.11 6.11 8.13 6.08 8.15 6.04 8.17 6.02 8.17 5.96 8.17 5.93 8.16 5.9 8.16 5.87 8.16 5.83 8.15 5.81 8.13 5.77 8.12 5.74 8.1 5.69 8.09 5.67 8.06 5.61 8.05 5.59 8.03 5.54 8.01 5.5 7.96 5.45 7.95 5.39 7.9 5.34 7.89 5.29 7.84 5.22 7.8 5.17 7.76 5.12 7.71 5.05 7.71 5.05 7.71 5.05"/><polygon class="cls-2" points="9.28 4.04 9.27 3.98 9.27 3.94 9.26 3.86 9.26 3.81 9.26 3.74 9.26 3.67 9.25 3.6 9.25 3.54 9.23 3.46 9.22 3.38 9.21 3.3 9.2 3.22 9.19 3.13 9.19 3.05 9.16 2.98 9.15 2.9 9.13 2.81 9.12 2.72 9.1 2.64 9.1 2.55 9.07 2.46 9.05 2.38 9.02 2.27 9.01 2.2 8.98 2.1 8.95 2.03 8.93 1.94 8.91 1.86 8.88 1.77 8.86 1.69 8.82 1.6 8.8 1.52 8.78 1.44 8.73 1.36 8.71 1.27 8.67 1.21 8.63 1.13 8.6 1.06 8.56 0.99 8.53 0.92 8.49 0.86 8.44 0.78 8.39 0.73 8.36 0.66 8.3 0.61 8.26 0.56 8.22 0.52 8.16 0.47 8.11 0.43 8.05 0.39 8 0.35 7.95 0.33 7.89 0.29 7.83 0.27 7.77 0.25 7.71 0.25 7.64 0.23 7.59 0.23 7.51 0.23 7.45 0.23 7.38 0.25 7.3 0.25 7.24 0.27 7.15 0.31 7.08 0.34 7.01 0.36 6.95 0.4 6.89 0.44 6.84 0.48 6.79 0.53 6.73 0.57 6.7 0.62 6.66 0.68 6.63 0.73 6.59 0.78 6.57 0.84 6.54 0.9 6.52 0.96 6.51 1.03 6.51 1.08 6.5 1.16 6.5 1.22 6.5 1.27 6.5 1.36 6.5 1.42 6.5 1.5 6.51 1.56 6.52 1.64 6.54 1.7 6.56 1.79 6.57 1.87 6.59 1.94 6.63 2.01 6.66 2.09 6.67 2.18 6.72 2.25 6.74 2.33 6.79 2.4 6.81 2.48 6.86 2.56 6.89 2.64 6.93 2.72 6.97 2.79 7.01 2.87 7.06 2.94 7.09 3.02 7.14 3.09 7.19 3.17 7.24 3.24 7.28 3.3 7.33 3.38 7.38 3.46 7.41 3.52 7.47 3.57 7.51 3.65 7.56 3.72 7.61 3.77 7.66 3.85 7.7 3.9 7.75 3.95 7.8 4.01 7.83 4.05 7.89 4.12 7.92 4.17 7.96 4.21 8.01 4.28 8.04 4.3 8.09 4.35 8.12 4.38 8.15 4.43 8.18 4.46 8.22 4.5 8.26 4.54 8.3 4.56 8.33 4.6 8.37 4.65 8.39 4.68 8.44 4.71 8.45 4.74 8.5 4.77 8.52 4.81 8.56 4.83 8.58 4.86 8.62 4.9 8.64 4.92 8.67 4.95 8.71 4.96 8.72 5 8.78 5.04 8.82 5.08 8.88 5.12 8.92 5.13 8.97 5.16 9.01 5.17 9.05 5.17 9.08 5.17 9.11 5.15 9.14 5.13 9.18 5.09 9.2 5.07 9.2 5.03 9.21 5.02 9.22 4.96 9.25 4.95 9.25 4.9 9.26 4.86 9.26 4.82 9.26 4.78 9.26 4.74 9.27 4.69 9.27 4.64 9.28 4.59 9.28 4.54 9.28 4.48 9.28 4.41 9.28 4.35 9.28 4.28 9.28 4.2 9.28 4.12 9.28 4.04 9.28 4.04 9.28 4.04"/><polygon class="cls-2" points="11.09 4.48 11.13 4.43 11.16 4.38 11.19 4.33 11.22 4.29 11.26 4.22 11.3 4.18 11.34 4.12 11.39 4.05 11.41 4 11.46 3.94 11.48 3.87 11.53 3.81 11.56 3.74 11.61 3.67 11.66 3.6 11.7 3.54 11.73 3.46 11.77 3.38 11.82 3.3 11.86 3.22 11.9 3.15 11.94 3.07 11.97 2.99 12.02 2.91 12.05 2.83 12.09 2.74 12.12 2.66 12.16 2.59 12.19 2.5 12.22 2.4 12.25 2.34 12.29 2.25 12.31 2.17 12.34 2.09 12.36 2 12.38 1.91 12.39 1.83 12.42 1.75 12.43 1.68 12.44 1.58 12.45 1.51 12.46 1.43 12.46 1.36 12.47 1.27 12.47 1.2 12.47 1.13 12.46 1.06 12.45 0.99 12.44 0.92 12.43 0.86 12.39 0.78 12.38 0.71 12.36 0.65 12.32 0.6 12.29 0.53 12.25 0.48 12.21 0.43 12.16 0.36 12.12 0.33 12.06 0.27 12.01 0.23 11.94 0.18 11.88 0.16 11.82 0.12 11.73 0.08 11.66 0.05 11.6 0.03 11.53 0.01 11.47 0 11.4 0 11.34 0 11.28 0 11.21 0 11.15 0.03 11.09 0.04 11.05 0.07 11 0.08 10.94 0.13 10.91 0.16 10.85 0.2 10.81 0.23 10.77 0.29 10.72 0.33 10.67 0.39 10.64 0.43 10.6 0.49 10.56 0.55 10.53 0.62 10.5 0.69 10.45 0.74 10.43 0.82 10.4 0.9 10.37 0.97 10.35 1.05 10.32 1.13 10.3 1.21 10.26 1.29 10.25 1.36 10.23 1.46 10.21 1.55 10.18 1.63 10.17 1.7 10.16 1.81 10.15 1.9 10.12 1.98 10.11 2.07 10.09 2.16 10.09 2.25 10.08 2.33 10.08 2.42 10.06 2.51 10.05 2.6 10.04 2.68 10.04 2.77 10.03 2.85 10.03 2.92 10.02 3.02 10.02 3.09 10.02 3.17 10.02 3.25 10.02 3.31 10.02 3.4 10.02 3.47 10.02 3.55 10.02 3.6 10.02 3.67 10.03 3.73 10.04 3.79 10.04 3.85 10.04 3.9 10.04 3.95 10.04 4 10.04 4.04 10.05 4.11 10.05 4.17 10.06 4.21 10.06 4.28 10.06 4.31 10.06 4.37 10.08 4.41 10.08 4.46 10.08 4.5 10.09 4.55 10.09 4.59 10.09 4.63 10.09 4.67 10.09 4.71 10.1 4.74 10.1 4.77 10.11 4.82 10.12 4.85 10.13 4.89 10.13 4.91 10.15 4.95 10.16 4.96 10.17 5 10.18 5.05 10.22 5.09 10.23 5.12 10.25 5.13 10.29 5.16 10.33 5.17 10.37 5.16 10.42 5.15 10.43 5.13 10.45 5.13 10.49 5.12 10.51 5.09 10.54 5.08 10.56 5.07 10.59 5.03 10.63 5.02 10.65 4.96 10.69 4.95 10.72 4.9 10.77 4.87 10.8 4.83 10.84 4.78 10.87 4.74 10.91 4.69 10.97 4.64 11 4.59 11.05 4.52 11.09 4.48 11.09 4.48 11.09 4.48"/><polygon class="cls-2" points="12.77 7.04 12.8 7.02 12.85 6.99 12.9 6.97 12.94 6.94 13 6.9 13.05 6.88 13.12 6.85 13.18 6.82 13.22 6.78 13.29 6.76 13.35 6.73 13.42 6.71 13.49 6.67 13.56 6.63 13.63 6.6 13.71 6.58 13.78 6.54 13.86 6.52 13.94 6.49 14.01 6.46 14.08 6.42 14.16 6.41 14.24 6.38 14.32 6.37 14.4 6.33 14.49 6.3 14.56 6.3 14.64 6.28 14.71 6.25 14.79 6.24 14.87 6.22 14.95 6.22 15.04 6.21 15.12 6.2 15.18 6.18 15.26 6.17 15.33 6.17 15.41 6.17 15.48 6.17 15.56 6.17 15.62 6.17 15.69 6.18 15.77 6.2 15.84 6.22 15.9 6.22 15.97 6.24 16.03 6.26 16.09 6.3 16.14 6.33 16.21 6.36 16.25 6.38 16.31 6.42 16.36 6.46 16.4 6.52 16.45 6.55 16.5 6.6 16.53 6.67 16.57 6.73 16.6 6.8 16.63 6.86 16.66 6.94 16.7 7.02 16.71 7.1 16.73 7.19 16.74 7.26 16.74 7.34 16.74 7.43 16.76 7.51 16.74 7.59 16.73 7.65 16.72 7.71 16.71 7.78 16.7 7.85 16.67 7.9 16.64 7.95 16.61 8.01 16.57 8.07 16.53 8.11 16.5 8.16 16.45 8.2 16.4 8.24 16.35 8.27 16.3 8.3 16.24 8.34 16.19 8.38 16.14 8.41 16.07 8.43 16.01 8.46 15.95 8.49 15.88 8.51 15.81 8.51 15.74 8.54 15.67 8.55 15.59 8.56 15.52 8.58 15.45 8.59 15.36 8.59 15.29 8.62 15.21 8.62 15.13 8.62 15.05 8.62 14.97 8.62 14.88 8.62 14.81 8.62 14.72 8.62 14.65 8.62 14.57 8.59 14.49 8.59 14.42 8.59 14.32 8.59 14.24 8.58 14.17 8.56 14.09 8.55 14.02 8.54 13.94 8.53 13.87 8.51 13.8 8.51 13.73 8.5 13.66 8.49 13.6 8.47 13.52 8.45 13.46 8.43 13.39 8.41 13.34 8.41 13.28 8.39 13.22 8.38 13.18 8.36 13.12 8.34 13.07 8.33 13.02 8.32 12.98 8.29 12.94 8.28 12.88 8.25 12.85 8.25 12.79 8.24 12.76 8.23 12.71 8.2 12.66 8.19 12.63 8.17 12.58 8.17 12.54 8.15 12.5 8.14 12.47 8.12 12.43 8.11 12.39 8.1 12.37 8.07 12.32 8.07 12.3 8.06 12.26 8.03 12.23 8.02 12.21 8.01 12.18 7.99 12.12 7.97 12.09 7.93 12.05 7.89 12.03 7.88 12.01 7.84 11.99 7.78 11.98 7.76 11.98 7.72 11.99 7.68 12.02 7.63 12.03 7.59 12.09 7.55 12.1 7.51 12.12 7.47 12.15 7.45 12.18 7.43 12.21 7.39 12.24 7.37 12.29 7.34 12.32 7.32 12.37 7.28 12.42 7.24 12.46 7.22 12.52 7.19 12.57 7.15 12.64 7.11 12.69 7.07 12.77 7.04 12.77 7.04 12.77 7.04"/><polygon class="cls-2" points="11.91 5.02 11.95 4.96 11.97 4.92 12.01 4.87 12.03 4.82 12.08 4.76 12.11 4.72 12.15 4.67 12.19 4.6 12.23 4.55 12.28 4.48 12.31 4.43 12.37 4.37 12.4 4.3 12.46 4.25 12.5 4.18 12.56 4.12 12.61 4.04 12.66 3.99 12.72 3.92 12.78 3.86 12.84 3.79 12.9 3.74 12.94 3.67 13.01 3.61 13.07 3.55 13.12 3.48 13.19 3.43 13.25 3.37 13.32 3.3 13.38 3.25 13.45 3.2 13.52 3.15 13.57 3.11 13.64 3.04 13.7 3 13.77 2.95 13.83 2.91 13.9 2.87 13.96 2.83 14.03 2.81 14.1 2.77 14.16 2.73 14.22 2.72 14.3 2.69 14.36 2.66 14.42 2.65 14.49 2.64 14.56 2.64 14.62 2.64 14.67 2.64 14.74 2.64 14.8 2.64 14.86 2.64 14.93 2.66 14.98 2.68 15.05 2.72 15.11 2.73 15.16 2.77 15.22 2.81 15.27 2.86 15.32 2.91 15.39 2.95 15.43 3.02 15.49 3.09 15.53 3.16 15.59 3.22 15.61 3.29 15.64 3.35 15.67 3.43 15.69 3.5 15.7 3.55 15.73 3.63 15.73 3.68 15.73 3.74 15.73 3.81 15.73 3.87 15.71 3.94 15.7 4 15.68 4.05 15.67 4.12 15.64 4.18 15.61 4.25 15.59 4.3 15.55 4.37 15.52 4.42 15.48 4.48 15.43 4.52 15.39 4.59 15.33 4.64 15.29 4.68 15.23 4.74 15.18 4.79 15.13 4.85 15.07 4.89 15 4.94 14.94 5 14.87 5.04 14.81 5.08 14.74 5.12 14.67 5.17 14.6 5.21 14.53 5.26 14.46 5.3 14.39 5.34 14.32 5.38 14.24 5.42 14.17 5.46 14.1 5.5 14.02 5.52 13.95 5.56 13.88 5.59 13.81 5.63 13.74 5.67 13.67 5.69 13.6 5.71 13.52 5.74 13.46 5.77 13.38 5.78 13.32 5.81 13.25 5.83 13.19 5.86 13.12 5.89 13.06 5.9 13 5.93 12.94 5.94 12.88 5.95 12.84 5.96 12.79 5.99 12.74 5.99 12.69 6 12.64 6.02 12.59 6.03 12.54 6.03 12.49 6.04 12.45 6.06 12.4 6.07 12.37 6.07 12.31 6.08 12.28 6.09 12.23 6.11 12.19 6.12 12.15 6.13 12.11 6.13 12.08 6.13 12.03 6.13 12.01 6.15 11.96 6.15 11.93 6.15 11.89 6.15 11.87 6.16 11.83 6.16 11.81 6.16 11.77 6.16 11.74 6.16 11.73 6.16 11.7 6.16 11.64 6.15 11.62 6.13 11.57 6.12 11.55 6.09 11.53 6.06 11.52 6.03 11.49 5.98 11.5 5.94 11.5 5.91 11.5 5.87 11.5 5.83 11.53 5.81 11.53 5.78 11.54 5.74 11.55 5.69 11.56 5.67 11.59 5.61 11.61 5.58 11.62 5.52 11.64 5.48 11.67 5.43 11.7 5.38 11.73 5.32 11.76 5.28 11.8 5.2 11.83 5.15 11.88 5.08 11.91 5.02 11.91 5.02 11.91 5.02"/><path class="cls-2" d="M11.31,7.24A1.46,1.46,0,1,1,9.85,5.78,1.46,1.46,0,0,1,11.31,7.24Z"/><path class="cls-1" d="M11.25,19.43H8.53C10.07,19.43,9.32,9,9.32,9a1.15,1.15,0,0,0,1.14,0S10.1,19.43,11.25,19.43Z"/></g></g></svg>