<svg xmlns="http://www.w3.org/2000/svg" viewBox="0 0 64.49 40.78"><defs><style>.cls-1{fill:#fff;fill-rule:evenodd;}</style></defs><g id="Layer_2" data-name="Layer 2"><g id="Capa_1" data-name="Capa 1"><polygon class="cls-1" points="18.76 33.33 18.59 33.15 18.37 33.02 18.15 32.9 17.88 32.78 17.66 32.66 17.39 32.54 17.11 32.35 16.84 32.23 16.51 32.11 16.23 31.93 15.96 31.75 15.63 31.62 15.3 31.5 15.03 31.38 14.7 31.26 14.37 31.02 13.98 30.95 13.66 30.77 13.27 30.59 12.94 30.53 12.56 30.34 12.23 30.22 11.84 30.04 11.52 29.98 11.13 29.86 10.75 29.73 10.31 29.67 10.04 29.55 9.65 29.49 9.27 29.37 8.89 29.31 8.55 29.25 8.17 29.19 7.84 29.13 7.46 29.07 7.07 29.07 6.69 29 6.36 29 5.98 29 5.65 29 5.32 29 4.99 29.07 4.66 29.13 4.39 29.19 4.06 29.19 3.78 29.31 3.46 29.37 3.18 29.55 2.91 29.67 2.58 29.8 2.36 29.92 2.14 30.1 1.86 30.28 1.65 30.59 1.43 30.71 1.26 30.95 1.04 31.26 0.88 31.56 0.71 31.81 0.6 32.17 0.44 32.48 0.33 32.84 0.22 33.21 0.17 33.63 0.11 34 0.05 34.43 0 34.79 0 35.16 0 35.52 0.05 35.83 0.11 36.13 0.17 36.44 0.22 36.74 0.33 36.99 0.49 37.23 0.6 37.53 0.77 37.78 0.99 37.96 1.1 38.2 1.32 38.39 1.54 38.63 1.76 38.75 1.98 38.93 2.25 39.12 2.52 39.3 2.8 39.42 3.02 39.55 3.4 39.67 3.68 39.79 4 39.91 4.33 39.97 4.66 40.09 4.99 40.09 5.32 40.22 5.65 40.27 6.03 40.4 6.42 40.4 6.75 40.4 7.13 40.4 7.51 40.46 7.84 40.46 8.23 40.46 8.61 40.46 8.99 40.52 9.38 40.46 9.71 40.46 10.09 40.46 10.47 40.46 10.91 40.4 11.3 40.4 11.63 40.4 12.01 40.27 12.34 40.27 12.67 40.22 13 40.15 13.38 40.09 13.71 40.03 14.09 39.97 14.37 39.91 14.75 39.91 15.03 39.85 15.3 39.79 15.57 39.73 15.9 39.67 16.18 39.55 16.4 39.48 16.67 39.42 16.95 39.42 17.16 39.36 17.39 39.24 17.6 39.18 17.82 39.06 18.04 38.99 18.26 38.93 18.48 38.87 18.7 38.81 18.87 38.69 19.03 38.69 19.3 38.63 19.47 38.57 19.69 38.51 19.85 38.45 20.02 38.39 20.24 38.33 20.34 38.33 20.51 38.2 20.67 38.15 20.78 38.08 20.95 37.96 21.11 37.96 21.28 37.84 21.33 37.84 21.61 37.66 21.77 37.53 21.99 37.41 22.1 37.29 22.21 37.11 22.26 36.92 22.32 36.74 22.32 36.56 22.26 36.38 22.16 36.13 22.05 35.95 21.94 35.7 21.77 35.58 21.66 35.46 21.55 35.34 21.39 35.16 21.28 34.98 21.11 34.85 20.89 34.73 20.73 34.61 20.51 34.43 20.29 34.31 20.07 34.12 19.85 33.94 19.58 33.82 19.36 33.63 19.03 33.51 18.76 33.33 18.76 33.33 18.76 33.33"/><polygon class="cls-1" points="22.1 23.7 21.99 23.46 21.83 23.21 21.66 22.97 21.5 22.79 21.28 22.55 21.11 22.3 20.89 22.06 20.67 21.87 20.45 21.51 20.24 21.27 20.02 21.02 19.85 20.78 19.58 20.48 19.36 20.17 19.03 19.92 18.81 19.62 18.59 19.32 18.26 19.07 18.04 18.77 17.77 18.46 17.44 18.22 17.16 17.98 16.84 17.67 16.56 17.43 16.29 17.12 15.96 16.88 15.63 16.63 15.36 16.39 15.08 16.15 14.75 15.85 14.42 15.66 14.15 15.42 13.76 15.17 13.49 14.99 13.16 14.75 12.89 14.56 12.51 14.38 12.18 14.2 11.9 14.14 11.63 13.95 11.3 13.83 10.91 13.71 10.64 13.65 10.31 13.53 9.98 13.47 9.71 13.41 9.38 13.34 9.05 13.34 8.78 13.34 8.5 13.34 8.23 13.34 7.9 13.47 7.62 13.53 7.4 13.59 7.07 13.71 6.8 13.83 6.53 14.01 6.25 14.14 5.98 14.38 5.82 14.56 5.54 14.87 5.32 15.11 5.1 15.48 4.88 15.78 4.66 16.15 4.5 16.45 4.33 16.76 4.22 17.12 4.06 17.43 4 17.73 3.95 18.04 3.9 18.4 3.9 18.71 3.9 18.95 3.9 19.32 3.95 19.62 4 19.92 4.06 20.17 4.17 20.48 4.33 20.78 4.44 21.02 4.55 21.27 4.72 21.51 4.88 21.82 5.1 22 5.26 22.3 5.48 22.55 5.7 22.79 5.98 22.97 6.2 23.21 6.42 23.52 6.75 23.7 7.07 23.89 7.35 24.13 7.62 24.37 7.95 24.55 8.23 24.74 8.55 24.92 8.89 25.1 9.21 25.29 9.54 25.47 9.93 25.65 10.26 25.77 10.59 25.96 10.91 26.14 11.3 26.26 11.68 26.44 12.01 26.63 12.34 26.69 12.67 26.81 13 26.99 13.38 27.11 13.71 27.18 14.09 27.36 14.42 27.42 14.75 27.54 15.08 27.66 15.41 27.78 15.74 27.84 16.07 27.91 16.4 27.97 16.67 28.09 16.95 28.15 17.22 28.21 17.49 28.27 17.82 28.33 18.04 28.39 18.32 28.46 18.54 28.46 18.76 28.46 18.98 28.52 19.19 28.58 19.41 28.58 19.63 28.64 19.85 28.64 20.07 28.7 20.24 28.76 20.45 28.76 20.67 28.76 20.89 28.82 21.06 28.82 21.28 28.82 21.44 28.82 21.66 28.88 21.83 28.88 21.99 28.88 22.1 28.88 22.32 28.94 22.48 28.94 22.59 28.94 22.76 28.94 22.93 28.94 23.03 28.88 23.2 28.88 23.25 28.88 23.42 28.88 23.64 28.82 23.8 28.76 23.97 28.64 24.08 28.52 24.13 28.33 24.24 28.21 24.24 27.97 24.24 27.78 24.18 27.66 24.18 27.54 24.18 27.36 24.13 27.23 24.08 27.05 24.02 26.93 23.91 26.69 23.86 26.57 23.75 26.32 23.69 26.2 23.58 25.96 23.47 25.77 23.25 25.53 23.2 25.29 22.98 25.04 22.93 24.8 22.7 24.5 22.48 24.25 22.32 24.01 22.1 23.7 22.1 23.7 22.1 23.7"/><polygon class="cls-1" points="29.45 18.95 29.39 18.64 29.39 18.46 29.34 18.1 29.34 17.85 29.34 17.55 29.34 17.18 29.29 16.88 29.29 16.57 29.23 16.21 29.18 15.85 29.12 15.48 29.07 15.11 29.01 14.69 29.01 14.32 28.9 13.95 28.85 13.59 28.74 13.16 28.68 12.74 28.57 12.37 28.57 11.94 28.46 11.52 28.35 11.15 28.24 10.66 28.19 10.3 28.02 9.87 27.91 9.5 27.8 9.08 27.7 8.71 27.59 8.29 27.47 7.92 27.31 7.5 27.2 7.13 27.09 6.76 26.87 6.4 26.76 5.97 26.6 5.67 26.38 5.3 26.27 5 26.05 4.63 25.94 4.33 25.72 4.02 25.5 3.66 25.28 3.41 25.12 3.11 24.84 2.86 24.68 2.62 24.46 2.44 24.18 2.19 23.97 2.01 23.69 1.83 23.42 1.65 23.2 1.52 22.93 1.34 22.65 1.28 22.38 1.16 22.1 1.16 21.77 1.1 21.5 1.1 21.17 1.1 20.84 1.1 20.51 1.16 20.18 1.16 19.85 1.28 19.47 1.46 19.14 1.58 18.81 1.71 18.54 1.89 18.26 2.07 17.99 2.25 17.77 2.5 17.49 2.68 17.33 2.92 17.16 3.17 17 3.41 16.84 3.66 16.73 3.96 16.62 4.2 16.51 4.51 16.45 4.82 16.45 5.06 16.4 5.42 16.4 5.73 16.4 5.97 16.4 6.4 16.4 6.64 16.4 7.01 16.45 7.31 16.51 7.68 16.62 7.98 16.67 8.41 16.73 8.78 16.84 9.08 17 9.45 17.16 9.81 17.22 10.23 17.44 10.54 17.55 10.91 17.77 11.27 17.88 11.64 18.1 12 18.26 12.37 18.43 12.74 18.59 13.1 18.81 13.47 19.03 13.77 19.19 14.14 19.41 14.5 19.63 14.87 19.85 15.17 20.07 15.48 20.29 15.85 20.51 16.21 20.67 16.51 20.95 16.76 21.17 17.12 21.39 17.43 21.61 17.67 21.83 18.04 22.05 18.28 22.26 18.52 22.48 18.83 22.65 19.01 22.93 19.32 23.09 19.56 23.25 19.74 23.47 20.05 23.64 20.17 23.86 20.41 24.02 20.53 24.13 20.78 24.3 20.9 24.46 21.08 24.68 21.27 24.84 21.39 25.01 21.57 25.17 21.82 25.28 21.94 25.5 22.06 25.56 22.24 25.77 22.36 25.88 22.55 26.05 22.67 26.16 22.79 26.32 22.97 26.43 23.09 26.6 23.21 26.76 23.28 26.82 23.46 27.09 23.64 27.31 23.82 27.59 24.01 27.75 24.07 27.97 24.19 28.19 24.25 28.35 24.25 28.52 24.25 28.63 24.13 28.79 24.07 28.95 23.89 29.07 23.76 29.07 23.58 29.12 23.52 29.18 23.28 29.29 23.21 29.29 22.97 29.34 22.79 29.34 22.61 29.34 22.42 29.34 22.24 29.39 22 29.39 21.75 29.45 21.51 29.45 21.27 29.45 21.02 29.45 20.66 29.45 20.41 29.45 20.05 29.45 19.68 29.45 19.32 29.45 18.95 29.45 18.95 29.45 18.95"/><polygon class="cls-1" points="37.95 21.02 38.12 20.78 38.28 20.53 38.39 20.29 38.55 20.11 38.72 19.8 38.94 19.62 39.1 19.32 39.32 19.01 39.43 18.77 39.65 18.46 39.76 18.16 39.98 17.85 40.14 17.55 40.36 17.18 40.58 16.88 40.8 16.57 40.91 16.21 41.13 15.85 41.35 15.48 41.51 15.11 41.73 14.75 41.9 14.38 42.06 14.01 42.28 13.65 42.45 13.29 42.61 12.86 42.78 12.49 42.94 12.13 43.1 11.7 43.21 11.27 43.38 10.97 43.54 10.54 43.65 10.18 43.76 9.81 43.87 9.38 43.98 8.96 44.04 8.59 44.14 8.23 44.2 7.86 44.26 7.43 44.31 7.07 44.37 6.7 44.37 6.4 44.42 5.97 44.42 5.61 44.42 5.3 44.37 5 44.31 4.63 44.26 4.33 44.2 4.02 44.04 3.66 43.98 3.35 43.87 3.04 43.71 2.8 43.54 2.5 43.38 2.25 43.16 2.01 42.94 1.71 42.78 1.52 42.5 1.28 42.23 1.1 41.9 0.85 41.62 0.73 41.35 0.55 40.91 0.37 40.58 0.24 40.31 0.12 39.98 0.06 39.71 0 39.38 0 39.1 0 38.83 0 38.5 0 38.22 0.12 37.95 0.18 37.73 0.3 37.51 0.37 37.24 0.61 37.07 0.73 36.8 0.92 36.64 1.1 36.41 1.34 36.2 1.52 35.97 1.83 35.81 2.01 35.65 2.32 35.43 2.56 35.32 2.92 35.15 3.23 34.93 3.48 34.82 3.84 34.72 4.2 34.55 4.57 34.44 4.94 34.33 5.3 34.22 5.67 34.06 6.03 34 6.4 33.89 6.82 33.78 7.25 33.67 7.62 33.62 7.98 33.56 8.47 33.51 8.9 33.4 9.26 33.34 9.69 33.23 10.11 33.23 10.54 33.18 10.91 33.18 11.33 33.13 11.76 33.07 12.19 33.01 12.55 33.01 12.98 32.96 13.34 32.96 13.71 32.91 14.14 32.91 14.5 32.91 14.87 32.91 15.23 32.91 15.54 32.91 15.96 32.91 16.27 32.91 16.63 32.91 16.88 32.91 17.18 32.96 17.49 33.01 17.79 33.01 18.04 33.01 18.28 33.01 18.52 33.01 18.77 33.01 18.95 33.07 19.26 33.07 19.56 33.13 19.74 33.13 20.05 33.13 20.23 33.13 20.48 33.18 20.66 33.18 20.9 33.18 21.08 33.23 21.32 33.23 21.51 33.23 21.69 33.23 21.87 33.23 22.06 33.29 22.24 33.29 22.36 33.34 22.61 33.4 22.73 33.45 22.91 33.45 23.03 33.51 23.21 33.56 23.28 33.62 23.46 33.67 23.7 33.84 23.89 33.89 24.01 34 24.07 34.16 24.19 34.39 24.25 34.55 24.19 34.77 24.13 34.82 24.07 34.93 24.07 35.1 24.01 35.21 23.89 35.37 23.82 35.43 23.76 35.59 23.58 35.76 23.52 35.87 23.28 36.03 23.21 36.2 22.97 36.41 22.85 36.58 22.67 36.74 22.42 36.91 22.24 37.07 22 37.35 21.75 37.51 21.51 37.73 21.21 37.95 21.02 37.95 21.02 37.95 21.02"/><polygon class="cls-1" points="45.79 33.02 45.96 32.9 46.18 32.78 46.39 32.66 46.62 32.54 46.89 32.35 47.11 32.23 47.44 32.11 47.71 31.99 47.93 31.81 48.26 31.68 48.53 31.56 48.86 31.44 49.19 31.26 49.52 31.07 49.85 30.95 50.23 30.83 50.56 30.65 50.89 30.59 51.27 30.41 51.6 30.28 51.93 30.1 52.32 30.04 52.7 29.92 53.09 29.86 53.47 29.67 53.85 29.55 54.18 29.55 54.56 29.43 54.9 29.31 55.28 29.25 55.66 29.19 56.05 29.19 56.43 29.13 56.81 29.07 57.09 29 57.47 28.94 57.8 28.94 58.19 28.94 58.52 28.94 58.9 28.94 59.17 28.94 59.5 29 59.89 29.07 60.21 29.19 60.49 29.19 60.82 29.25 61.09 29.37 61.37 29.55 61.59 29.67 61.91 29.8 62.13 29.92 62.41 30.1 62.63 30.28 62.85 30.59 63.07 30.71 63.29 30.95 63.45 31.26 63.62 31.56 63.78 31.87 63.89 32.17 64.05 32.54 64.22 32.9 64.27 33.27 64.38 33.7 64.44 34.06 64.44 34.43 64.44 34.85 64.49 35.22 64.44 35.58 64.38 35.89 64.33 36.13 64.27 36.5 64.22 36.8 64.11 37.05 63.94 37.29 63.83 37.53 63.62 37.84 63.45 38.02 63.29 38.26 63.07 38.45 62.85 38.63 62.57 38.75 62.35 38.93 62.08 39.12 61.86 39.3 61.59 39.42 61.26 39.55 60.98 39.67 60.71 39.79 60.38 39.91 60.05 39.91 59.72 40.03 59.39 40.09 59.01 40.15 58.68 40.22 58.35 40.27 57.97 40.27 57.64 40.4 57.25 40.4 56.87 40.4 56.48 40.4 56.1 40.4 55.72 40.4 55.39 40.4 54.95 40.4 54.62 40.4 54.24 40.27 53.85 40.27 53.52 40.27 53.09 40.27 52.7 40.22 52.37 40.15 51.99 40.09 51.66 40.03 51.27 39.97 50.95 39.91 50.62 39.91 50.29 39.85 49.96 39.79 49.68 39.73 49.3 39.6 49.03 39.55 48.7 39.42 48.48 39.42 48.2 39.36 47.93 39.3 47.71 39.18 47.44 39.12 47.22 39.06 47 38.99 46.78 38.87 46.62 38.81 46.34 38.69 46.18 38.69 45.9 38.63 45.74 38.57 45.52 38.45 45.3 38.39 45.13 38.33 44.91 38.33 44.75 38.2 44.53 38.15 44.42 38.08 44.2 38.02 44.04 37.96 43.93 37.84 43.71 37.84 43.6 37.78 43.43 37.66 43.27 37.59 43.16 37.53 43.05 37.47 42.78 37.35 42.61 37.17 42.45 36.99 42.34 36.92 42.23 36.74 42.17 36.5 42.12 36.38 42.12 36.19 42.17 36.01 42.28 35.77 42.34 35.58 42.61 35.4 42.66 35.22 42.78 35.03 42.89 34.91 43.05 34.85 43.16 34.67 43.33 34.55 43.54 34.43 43.71 34.31 43.93 34.12 44.14 33.94 44.37 33.88 44.64 33.7 44.86 33.51 45.19 33.33 45.41 33.15 45.79 33.02 45.79 33.02 45.79 33.02"/><polygon class="cls-1" points="41.79 23.52 41.95 23.28 42.06 23.09 42.23 22.85 42.34 22.61 42.56 22.3 42.72 22.12 42.89 21.87 43.1 21.57 43.27 21.32 43.49 21.02 43.65 20.78 43.93 20.48 44.09 20.17 44.37 19.92 44.53 19.62 44.81 19.32 45.08 18.95 45.3 18.71 45.57 18.4 45.85 18.1 46.12 17.79 46.39 17.55 46.62 17.18 46.94 16.94 47.22 16.63 47.44 16.33 47.77 16.09 48.04 15.78 48.37 15.48 48.64 15.23 48.97 14.99 49.3 14.75 49.58 14.56 49.91 14.26 50.18 14.08 50.51 13.83 50.78 13.65 51.11 13.47 51.39 13.29 51.71 13.16 52.04 12.98 52.32 12.79 52.59 12.74 52.98 12.61 53.25 12.49 53.52 12.43 53.85 12.37 54.18 12.37 54.46 12.37 54.73 12.37 55.06 12.37 55.33 12.37 55.61 12.37 55.94 12.49 56.16 12.55 56.48 12.74 56.76 12.79 57.04 12.98 57.31 13.16 57.53 13.41 57.75 13.65 58.08 13.83 58.3 14.14 58.57 14.5 58.73 14.81 59.01 15.11 59.12 15.42 59.28 15.72 59.39 16.09 59.5 16.39 59.56 16.63 59.67 17 59.67 17.24 59.67 17.55 59.67 17.85 59.67 18.16 59.61 18.46 59.56 18.77 59.45 19.01 59.39 19.32 59.28 19.62 59.12 19.92 59.01 20.17 58.84 20.48 58.68 20.72 58.52 21.02 58.3 21.21 58.08 21.51 57.8 21.75 57.64 21.94 57.36 22.24 57.09 22.48 56.87 22.73 56.6 22.91 56.27 23.16 55.99 23.46 55.66 23.64 55.39 23.82 55.06 24.01 54.73 24.25 54.4 24.43 54.07 24.68 53.74 24.86 53.41 25.04 53.09 25.23 52.7 25.41 52.37 25.59 52.04 25.77 51.66 25.9 51.33 26.08 51 26.2 50.67 26.38 50.34 26.57 50.01 26.69 49.68 26.75 49.3 26.93 49.03 27.05 48.64 27.11 48.37 27.23 48.04 27.36 47.77 27.48 47.44 27.6 47.16 27.66 46.89 27.78 46.62 27.84 46.34 27.91 46.12 27.97 45.9 28.09 45.68 28.09 45.41 28.15 45.19 28.21 44.97 28.27 44.75 28.27 44.48 28.33 44.31 28.39 44.09 28.46 43.93 28.46 43.65 28.52 43.49 28.58 43.27 28.64 43.1 28.7 42.89 28.76 42.72 28.76 42.56 28.76 42.34 28.76 42.23 28.82 42.01 28.82 41.84 28.82 41.68 28.82 41.57 28.88 41.41 28.88 41.3 28.88 41.13 28.88 40.97 28.88 40.91 28.88 40.8 28.88 40.53 28.82 40.42 28.76 40.2 28.7 40.09 28.58 39.98 28.39 39.92 28.27 39.81 28.03 39.87 27.84 39.87 27.72 39.87 27.54 39.87 27.36 39.98 27.23 39.98 27.11 40.03 26.93 40.09 26.69 40.14 26.57 40.25 26.32 40.36 26.14 40.42 25.9 40.53 25.71 40.64 25.47 40.8 25.23 40.91 24.92 41.07 24.74 41.24 24.37 41.41 24.13 41.62 23.82 41.79 23.52 41.79 23.52 41.79 23.52"/><path class="cls-1" d="M39,33.93a6.85,6.85,0,1,1-6.85-6.85A6.85,6.85,0,0,1,39,33.93Z"/></g></g></svg>