<svg xmlns="http://www.w3.org/2000/svg" viewBox="0 0 20.06 22.96"><defs><style>.cls-1{fill:#fff;}</style></defs><g id="Layer_2" data-name="Layer 2"><g id="Capa_1" data-name="Capa 1"><path class="cls-1" d="M10.61,1.53l.19.18,3.59,3.58a.58.58,0,0,1,.19.44c0,1,0,1.91,0,2.86v.24l-.16-.15C13.2,7.47,12,6.25,10.77,5.05a.57.57,0,0,1-.17-.41c0-.95,0-1.9,0-2.85Z"/><path class="cls-1" d="M9.51,1.57V2c0,.9,0,1.79,0,2.68A.54.54,0,0,1,9.36,5Q7.56,6.86,5.74,8.67l-.14.11a1.25,1.25,0,0,1,0-.15c0-1,0-2,0-3a.39.39,0,0,1,.11-.28L9.42,1.61Z"/><path class="cls-1" d="M14.12,13.27,14,13.13,10.77,9.94a.5.5,0,0,1-.17-.4c0-1,0-2,0-3.1l.13.11C12,7.77,13.18,9,14.41,10.21a.57.57,0,0,1,.17.41,6.19,6.19,0,0,1-.37,2.45C14.19,13.13,14.16,13.18,14.12,13.27Z"/><path class="cls-1" d="M6,13.31A12.72,12.72,0,0,1,5.64,12a11.33,11.33,0,0,1,0-1.43.46.46,0,0,1,.11-.3L9.41,6.54l.08-.06a2.06,2.06,0,0,1,0,.21c0,1,0,1.93,0,2.9a.5.5,0,0,1-.11.32C8.3,11,7.2,12.11,6.1,13.21Z"/><path class="cls-1" d="M9.44,0,5.58,3.86v-.4c0-.55,0-1.11,0-1.66,0-.17,0-.24-.23-.23H4.79c-.16,0-.23,0-.22-.21,0-.39,0-.78,0-1.17,0-.14,0-.2.19-.2Z"/><path class="cls-1" d="M14.54,3.93,10.67.07l0,0,.19,0h4.4c.21,0,.3.05.29.28s0,.72,0,1.08c0,.16-.06.23-.22.21h-.11c-.22,0-.52-.05-.64.06s0,.42,0,.64V3.82S14.56,3.84,14.54,3.93Z"/><path class="cls-1" d="M10.62,11.4l2.85,2.84a4.15,4.15,0,0,1-2.85,1.52Z"/><path class="cls-1" d="M9.5,11.37c0,.09,0,.15,0,.21v3.93c0,.27,0,.29-.3.24a4.6,4.6,0,0,1-2.37-1.28c-.23-.23-.22-.23,0-.45l2.49-2.49A1.39,1.39,0,0,1,9.5,11.37Z"/><path class="cls-1" d="M7.61,20a1,1,0,0,1,1.08-.43c.38.08.55.31.58.82s0,.89,0,1.34c0,.13,0,.18-.18.18-.69,0-.54.08-.56-.53,0-.29,0-.58,0-.87s-.11-.32-.27-.32a.58.58,0,0,0-.42.16.85.85,0,0,0-.13.45,6.76,6.76,0,0,0,0,.9c0,.14,0,.21-.2.21-.66,0-.53.08-.55-.52,0-.3,0-.6,0-.9a.3.3,0,0,0-.28-.31.62.62,0,0,0-.41.18.88.88,0,0,0-.13.46,8.81,8.81,0,0,0,0,.89c0,.14,0,.2-.19.2-.67,0-.55.07-.56-.52s0-1,0-1.54c0-.18,0-.28.24-.25h.14c.2,0,.31,0,.28.26a1.17,1.17,0,0,0,0,.15,1.11,1.11,0,0,1,.8-.46A.82.82,0,0,1,7.61,20Z"/><path class="cls-1" d="M17.84,22.33c.31,0,.59.07.87.07.45,0,.71-.34.62-.83l-.15.1a1,1,0,0,1-1.65-.57,2.11,2.11,0,0,1,0-.79.94.94,0,0,1,1.64-.39.67.67,0,0,1,.07.11l.07-.05c0-.11,0-.3.07-.31a2,2,0,0,1,.55,0s.08.08.08.12c0,.73,0,1.47,0,2.21s-.47.91-1.12,1a3.15,3.15,0,0,1-.75,0C17.77,22.86,17.69,22.69,17.84,22.33Zm1.48-1.64a.53.53,0,0,0-.47-.54c-.28,0-.5.14-.56.48a1.05,1.05,0,0,0,0,.43.47.47,0,0,0,.72.24A.64.64,0,0,0,19.32,20.69Z"/><path class="cls-1" d="M10.48,21.55c-.05.16-.05.33-.12.36a1.46,1.46,0,0,1-.43,0c-.14,0-.2-.05-.2-.2V18.82c0-.14,0-.21.2-.2.71,0,.57-.09.59.55v.74l.15-.07a1,1,0,0,1,1.61.52,1.32,1.32,0,0,1-.22,1.28,1,1,0,0,1-1.48,0A.58.58,0,0,1,10.48,21.55Zm0-.75h0a.86.86,0,0,0,0,.16.58.58,0,0,0,.42.47.46.46,0,0,0,.51-.22.75.75,0,0,0,.05-.74.49.49,0,0,0-.44-.32.47.47,0,0,0-.47.3A2,2,0,0,0,10.49,20.8Z"/><path class="cls-1" d="M.09,21.32l.91.11a.24.24,0,0,0,.12,0c.16,0,.32-.07.36-.26a.35.35,0,0,0-.24-.4c-.26-.1-.52-.18-.77-.29a.74.74,0,0,1-.47-.7A.8.8,0,0,1,.44,19a1.11,1.11,0,0,1,.43-.15c.36,0,.72,0,1.07,0,.16,0,.21.1.17.25s0,.21,0,.31c-.29,0-.56,0-.83,0a.55.55,0,0,0-.28.06.25.25,0,0,0,0,.46,1.61,1.61,0,0,0,.36.15l.5.17a.81.81,0,0,1,.52.78.87.87,0,0,1-.5.84,2.49,2.49,0,0,1-1.64.07.18.18,0,0,1-.11-.14A3,3,0,0,1,.09,21.32Z"/><path class="cls-1" d="M5,19.64a1.22,1.22,0,0,1,0,.17c-.31.79-.62,1.59-.94,2.38-.22.56-.5.77-1,.77s-.52-.13-.36-.56a2.43,2.43,0,0,0,.27,0,.39.39,0,0,0,.37-.57c-.26-.64-.51-1.29-.77-1.94,0-.07,0-.14-.09-.25.25,0,.47,0,.69,0,.06,0,.14.1.16.18.14.36.25.74.37,1.11l.11.27a1.77,1.77,0,0,0,.12-.28q.18-.54.33-1.08a.26.26,0,0,1,.3-.22A4.09,4.09,0,0,0,5,19.64Z"/><path class="cls-1" d="M14,22a1.35,1.35,0,0,1-1.13-.51,1.2,1.2,0,0,1,1-1.9,2.14,2.14,0,0,1,.62.06,1.12,1.12,0,0,1,.87,1.15,1.15,1.15,0,0,1-.9,1.13A3.5,3.5,0,0,1,14,22Zm.56-1.2c0-.41-.19-.68-.5-.71-.47,0-.66.35-.63.77s.22.59.49.61S14.52,21.27,14.52,20.81Z"/><path class="cls-1" d="M17.33,20.18l-.13,0c-.53,0-.77.24-.78.77q0,.39,0,.78c0,.14-.05.2-.19.2-.67,0-.54.07-.55-.52s0-1,0-1.54c0-.19.05-.28.25-.25h0c.39,0,.39,0,.46.38l.11-.11a1,1,0,0,0,.08-.11c.16-.17.58-.32.66-.19A1.49,1.49,0,0,1,17.33,20.18Z"/></g></g></svg>