<svg xmlns="http://www.w3.org/2000/svg" viewBox="0 0 13.3 21.3"><defs><style>.cls-1,.cls-2{fill:#d7d8cf;}.cls-2{fill-rule:evenodd;}</style></defs><g id="Layer_2" data-name="Layer 2"><g id="Capa_1" data-name="Capa 1"><path class="cls-1" d="M5.09,21.3V15.7c0-.58-.25-1.09-1-1.09s-1,.51-1,1.09v5.6H0V15.19a3.71,3.71,0,0,1,4-3.57,3.79,3.79,0,0,1,2.68,1.32,3.79,3.79,0,0,1,2.68-1.32,3.71,3.71,0,0,1,4,3.57V21.3H10.19V15.7c0-.58-.26-1.09-1-1.09s-1,.51-1,1.09v5.6Z"/><path class="cls-1" d="M7.47,10a2.43,2.43,0,0,1,2-1.81C11,8.06,11.38,9.65,12.94,10,12.94,10,9,11.05,7.47,10Z"/><path class="cls-1" d="M6,10A2.43,2.43,0,0,0,4,8.17C2.44,8.06,2.09,9.65.53,10,.53,10,4.52,11.05,6,10Z"/><path class="cls-1" d="M7.47,7.24a1.23,1.23,0,0,1,1-.91c.78,0,.95.74,1.73.91C10.2,7.24,8.21,7.77,7.47,7.24Z"/><path class="cls-1" d="M6,7.24a1.23,1.23,0,0,0-1-.91c-.78,0-1,.74-1.74.91C3.26,7.24,5.26,7.77,6,7.24Z"/><polygon class="cls-2" points="4.72 4.8 4.7 4.78 4.67 4.76 4.64 4.74 4.6 4.73 4.57 4.71 4.53 4.69 4.49 4.66 4.45 4.65 4.4 4.63 4.36 4.6 4.32 4.58 4.27 4.56 4.22 4.54 4.19 4.52 4.14 4.51 4.09 4.47 4.04 4.46 3.99 4.44 3.93 4.41 3.88 4.4 3.83 4.38 3.78 4.36 3.73 4.33 3.68 4.32 3.62 4.3 3.57 4.29 3.51 4.28 3.47 4.26 3.41 4.25 3.35 4.23 3.3 4.22 3.25 4.22 3.2 4.21 3.15 4.2 3.1 4.19 3.04 4.19 2.98 4.18 2.94 4.18 2.88 4.18 2.83 4.18 2.79 4.18 2.74 4.19 2.69 4.2 2.65 4.21 2.6 4.21 2.56 4.22 2.52 4.23 2.48 4.26 2.44 4.28 2.39 4.3 2.36 4.31 2.33 4.34 2.29 4.37 2.26 4.41 2.23 4.43 2.2 4.46 2.17 4.51 2.15 4.55 2.12 4.58 2.11 4.64 2.08 4.68 2.07 4.74 2.05 4.79 2.04 4.85 2.04 4.9 2.03 4.96 2.02 5.02 2.02 5.07 2.02 5.12 2.03 5.17 2.04 5.21 2.04 5.25 2.05 5.3 2.07 5.33 2.09 5.37 2.11 5.41 2.13 5.45 2.16 5.47 2.18 5.51 2.21 5.53 2.24 5.57 2.27 5.59 2.3 5.61 2.34 5.64 2.38 5.67 2.42 5.68 2.45 5.7 2.51 5.72 2.55 5.74 2.6 5.75 2.64 5.76 2.69 5.78 2.74 5.78 2.79 5.8 2.83 5.81 2.89 5.82 2.94 5.82 2.99 5.82 3.05 5.82 3.1 5.83 3.15 5.83 3.21 5.83 3.26 5.83 3.32 5.84 3.37 5.83 3.42 5.83 3.47 5.83 3.53 5.83 3.59 5.82 3.65 5.82 3.7 5.82 3.75 5.81 3.8 5.81 3.85 5.8 3.89 5.79 3.95 5.78 4 5.77 4.05 5.76 4.09 5.75 4.15 5.75 4.19 5.75 4.22 5.74 4.26 5.73 4.31 5.72 4.35 5.7 4.38 5.69 4.42 5.68 4.46 5.68 4.49 5.67 4.53 5.66 4.56 5.65 4.59 5.63 4.62 5.62 4.65 5.61 4.68 5.6 4.72 5.6 4.74 5.58 4.76 5.58 4.8 5.57 4.83 5.56 4.86 5.55 4.88 5.54 4.91 5.53 4.94 5.53 4.95 5.53 4.98 5.51 5 5.5 5.02 5.49 5.04 5.47 5.06 5.47 5.09 5.46 5.09 5.46 5.13 5.43 5.16 5.41 5.19 5.39 5.21 5.38 5.22 5.35 5.23 5.32 5.24 5.3 5.24 5.27 5.23 5.24 5.21 5.21 5.2 5.18 5.18 5.15 5.16 5.13 5.14 5.11 5.13 5.09 5.1 5.07 5.09 5.04 5.06 5.03 5.03 5.01 5.01 4.99 4.98 4.96 4.95 4.95 4.91 4.92 4.88 4.89 4.84 4.88 4.81 4.85 4.76 4.83 4.72 4.8 4.72 4.8 4.72 4.8"/><polygon class="cls-2" points="5.21 3.42 5.19 3.38 5.17 3.35 5.14 3.31 5.12 3.29 5.09 3.25 5.06 3.21 5.03 3.18 5 3.15 4.97 3.1 4.94 3.07 4.91 3.03 4.88 3 4.84 2.95 4.81 2.91 4.76 2.87 4.73 2.83 4.7 2.79 4.65 2.75 4.62 2.71 4.58 2.66 4.53 2.63 4.49 2.59 4.45 2.55 4.41 2.51 4.37 2.47 4.32 2.43 4.27 2.4 4.23 2.36 4.19 2.33 4.15 2.28 4.1 2.26 4.06 2.22 4 2.19 3.96 2.16 3.92 2.13 3.88 2.1 3.82 2.07 3.77 2.05 3.73 2.04 3.7 2.01 3.65 1.99 3.59 1.98 3.55 1.97 3.51 1.95 3.46 1.94 3.42 1.93 3.37 1.92 3.32 1.92 3.28 1.92 3.25 1.92 3.21 1.92 3.16 1.94 3.12 1.95 3.09 1.96 3.04 1.98 3 1.99 2.96 2.02 2.92 2.04 2.88 2.07 2.86 2.1 2.82 2.14 2.79 2.18 2.75 2.23 2.72 2.27 2.69 2.33 2.67 2.37 2.64 2.42 2.63 2.47 2.6 2.51 2.6 2.56 2.59 2.6 2.58 2.65 2.58 2.7 2.58 2.73 2.58 2.79 2.59 2.83 2.6 2.87 2.6 2.91 2.62 2.95 2.64 3 2.66 3.03 2.67 3.07 2.7 3.1 2.72 3.15 2.75 3.17 2.78 3.21 2.81 3.25 2.84 3.29 2.88 3.31 2.91 3.35 2.94 3.39 2.99 3.42 3.04 3.44 3.08 3.48 3.12 3.51 3.17 3.54 3.21 3.57 3.25 3.59 3.3 3.62 3.35 3.65 3.4 3.67 3.45 3.7 3.5 3.72 3.54 3.74 3.59 3.77 3.65 3.79 3.7 3.81 3.75 3.84 3.8 3.85 3.85 3.87 3.89 3.89 3.95 3.91 4 3.92 4.05 3.94 4.1 3.95 4.15 3.97 4.19 3.99 4.24 4 4.29 4.01 4.34 4.02 4.38 4.03 4.42 4.05 4.46 4.06 4.5 4.07 4.54 4.08 4.59 4.08 4.62 4.09 4.66 4.1 4.69 4.1 4.72 4.1 4.75 4.11 4.79 4.12 4.82 4.12 4.85 4.13 4.88 4.13 4.91 4.14 4.94 4.15 4.97 4.15 5 4.15 5.03 4.16 5.05 4.16 5.09 4.16 5.11 4.16 5.14 4.16 5.17 4.16 5.19 4.16 5.21 4.16 5.24 4.17 5.26 4.17 5.28 4.17 5.3 4.17 5.32 4.17 5.34 4.16 5.36 4.16 5.37 4.16 5.39 4.16 5.43 4.16 5.45 4.15 5.47 4.13 5.49 4.11 5.5 4.08 5.51 4.07 5.51 4.03 5.51 4 5.51 3.99 5.51 3.97 5.51 3.94 5.5 3.93 5.49 3.9 5.48 3.88 5.47 3.85 5.46 3.83 5.44 3.79 5.43 3.78 5.42 3.74 5.4 3.72 5.37 3.68 5.36 3.65 5.33 3.61 5.32 3.58 5.29 3.53 5.26 3.5 5.24 3.46 5.21 3.42 5.21 3.42 5.21 3.42"/><polygon class="cls-2" points="6.26 2.73 6.26 2.69 6.26 2.66 6.25 2.61 6.25 2.57 6.25 2.53 6.25 2.48 6.24 2.43 6.24 2.39 6.23 2.34 6.22 2.28 6.22 2.23 6.21 2.18 6.2 2.12 6.2 2.06 6.19 2.01 6.18 1.96 6.16 1.9 6.15 1.84 6.14 1.78 6.14 1.72 6.12 1.66 6.11 1.61 6.09 1.54 6.08 1.49 6.06 1.42 6.04 1.37 6.03 1.31 6.01 1.26 6 1.19 5.98 1.14 5.96 1.08 5.94 1.03 5.92 0.97 5.89 0.92 5.88 0.86 5.85 0.82 5.82 0.76 5.81 0.72 5.78 0.67 5.76 0.62 5.73 0.58 5.7 0.53 5.66 0.49 5.64 0.45 5.6 0.41 5.58 0.38 5.54 0.35 5.51 0.32 5.47 0.29 5.43 0.26 5.39 0.24 5.36 0.22 5.32 0.19 5.29 0.18 5.25 0.17 5.21 0.17 5.16 0.16 5.12 0.16 5.07 0.16 5.02 0.16 4.98 0.17 4.93 0.17 4.88 0.18 4.83 0.21 4.78 0.23 4.73 0.25 4.69 0.27 4.65 0.3 4.61 0.33 4.58 0.36 4.54 0.39 4.52 0.42 4.49 0.46 4.47 0.49 4.45 0.53 4.43 0.57 4.42 0.61 4.4 0.65 4.39 0.69 4.39 0.73 4.38 0.78 4.38 0.83 4.38 0.86 4.38 0.92 4.38 0.96 4.38 1.01 4.39 1.05 4.4 1.11 4.42 1.15 4.42 1.21 4.43 1.26 4.45 1.31 4.47 1.36 4.49 1.41 4.5 1.48 4.53 1.52 4.55 1.57 4.58 1.63 4.6 1.68 4.63 1.73 4.65 1.78 4.68 1.84 4.7 1.89 4.73 1.94 4.76 1.99 4.79 2.04 4.82 2.09 4.85 2.14 4.88 2.19 4.91 2.23 4.95 2.28 4.98 2.34 5 2.38 5.04 2.42 5.07 2.47 5.1 2.51 5.13 2.55 5.17 2.6 5.2 2.63 5.23 2.67 5.26 2.71 5.29 2.74 5.32 2.79 5.35 2.82 5.37 2.85 5.4 2.89 5.43 2.91 5.46 2.94 5.48 2.96 5.5 3 5.52 3.01 5.54 3.04 5.58 3.07 5.6 3.08 5.63 3.11 5.65 3.15 5.66 3.16 5.7 3.18 5.7 3.21 5.74 3.22 5.75 3.25 5.78 3.27 5.79 3.29 5.81 3.31 5.83 3.33 5.85 3.35 5.88 3.36 5.89 3.38 5.92 3.41 5.96 3.44 6 3.46 6.02 3.47 6.05 3.49 6.08 3.5 6.11 3.5 6.13 3.5 6.15 3.48 6.17 3.47 6.19 3.44 6.21 3.43 6.21 3.4 6.22 3.39 6.22 3.36 6.24 3.35 6.24 3.31 6.25 3.29 6.25 3.26 6.25 3.23 6.25 3.21 6.26 3.17 6.26 3.14 6.26 3.1 6.26 3.07 6.26 3.03 6.26 2.98 6.26 2.94 6.26 2.89 6.26 2.84 6.26 2.79 6.26 2.73 6.26 2.73 6.26 2.73"/><polygon class="cls-2" points="7.49 3.03 7.51 3 7.54 2.96 7.55 2.92 7.58 2.9 7.6 2.85 7.63 2.83 7.66 2.79 7.69 2.74 7.7 2.71 7.74 2.66 7.75 2.62 7.78 2.57 7.81 2.53 7.84 2.48 7.87 2.43 7.9 2.39 7.92 2.34 7.95 2.28 7.98 2.23 8 2.18 8.04 2.13 8.06 2.07 8.08 2.02 8.12 1.97 8.14 1.92 8.16 1.85 8.19 1.8 8.21 1.75 8.23 1.69 8.25 1.63 8.27 1.58 8.3 1.52 8.31 1.47 8.33 1.41 8.34 1.35 8.36 1.29 8.37 1.24 8.38 1.19 8.39 1.13 8.4 1.07 8.41 1.02 8.41 0.97 8.41 0.92 8.42 0.86 8.42 0.81 8.42 0.76 8.41 0.72 8.41 0.67 8.4 0.62 8.39 0.58 8.37 0.53 8.36 0.48 8.34 0.44 8.32 0.4 8.3 0.36 8.27 0.33 8.24 0.29 8.21 0.25 8.19 0.22 8.15 0.18 8.11 0.16 8.06 0.12 8.02 0.1 7.98 0.08 7.92 0.05 7.87 0.04 7.83 0.02 7.78 0.01 7.74 0 7.7 0 7.66 0 7.62 0 7.57 0 7.53 0.02 7.49 0.03 7.46 0.04 7.43 0.05 7.39 0.09 7.36 0.1 7.32 0.13 7.3 0.16 7.27 0.19 7.24 0.22 7.21 0.26 7.18 0.29 7.16 0.33 7.13 0.37 7.11 0.42 7.09 0.47 7.06 0.5 7.04 0.55 7.02 0.61 7 0.66 6.98 0.71 6.97 0.76 6.95 0.82 6.93 0.87 6.92 0.92 6.91 0.98 6.89 1.04 6.87 1.1 6.87 1.15 6.86 1.22 6.85 1.28 6.83 1.33 6.83 1.4 6.81 1.46 6.81 1.52 6.8 1.57 6.8 1.63 6.79 1.7 6.79 1.76 6.78 1.81 6.78 1.87 6.77 1.92 6.77 1.98 6.76 2.04 6.76 2.09 6.76 2.14 6.76 2.2 6.76 2.24 6.76 2.3 6.76 2.35 6.76 2.4 6.76 2.43 6.76 2.48 6.77 2.52 6.78 2.56 6.78 2.6 6.78 2.63 6.78 2.67 6.78 2.71 6.78 2.73 6.79 2.78 6.79 2.82 6.79 2.85 6.79 2.89 6.79 2.92 6.79 2.95 6.8 2.98 6.8 3.01 6.8 3.04 6.81 3.07 6.81 3.1 6.81 3.13 6.81 3.15 6.81 3.18 6.82 3.21 6.82 3.22 6.83 3.26 6.83 3.28 6.84 3.3 6.84 3.32 6.85 3.35 6.86 3.36 6.87 3.38 6.87 3.42 6.9 3.44 6.91 3.46 6.92 3.47 6.95 3.49 6.98 3.5 7 3.49 7.03 3.48 7.04 3.47 7.06 3.47 7.08 3.46 7.09 3.44 7.12 3.44 7.13 3.43 7.15 3.4 7.17 3.39 7.19 3.36 7.21 3.35 7.24 3.31 7.27 3.29 7.29 3.27 7.32 3.23 7.34 3.21 7.36 3.17 7.4 3.14 7.43 3.1 7.46 3.06 7.49 3.03 7.49 3.03 7.49 3.03"/><polygon class="cls-2" points="8.62 4.76 8.64 4.74 8.68 4.73 8.71 4.71 8.74 4.69 8.78 4.66 8.81 4.65 8.86 4.63 8.9 4.61 8.93 4.58 8.98 4.57 9.02 4.55 9.06 4.53 9.11 4.51 9.16 4.48 9.21 4.46 9.26 4.45 9.31 4.42 9.36 4.41 9.41 4.38 9.46 4.37 9.51 4.34 9.56 4.33 9.62 4.31 9.67 4.3 9.73 4.28 9.78 4.26 9.83 4.26 9.89 4.24 9.93 4.22 9.99 4.22 10.04 4.21 10.1 4.21 10.15 4.2 10.21 4.19 10.25 4.18 10.3 4.17 10.35 4.17 10.41 4.17 10.46 4.17 10.51 4.17 10.55 4.17 10.6 4.18 10.65 4.19 10.7 4.21 10.74 4.21 10.79 4.22 10.83 4.23 10.87 4.26 10.9 4.28 10.95 4.3 10.98 4.31 11.02 4.34 11.05 4.37 11.08 4.41 11.11 4.43 11.14 4.46 11.17 4.51 11.19 4.55 11.21 4.59 11.23 4.64 11.25 4.69 11.28 4.74 11.29 4.8 11.3 4.86 11.31 4.91 11.31 4.96 11.31 5.03 11.32 5.08 11.31 5.13 11.3 5.17 11.29 5.21 11.29 5.26 11.28 5.31 11.26 5.34 11.24 5.38 11.22 5.41 11.19 5.46 11.17 5.48 11.14 5.52 11.11 5.54 11.08 5.57 11.04 5.59 11.01 5.61 10.97 5.64 10.94 5.67 10.9 5.68 10.85 5.7 10.81 5.72 10.77 5.74 10.72 5.75 10.68 5.75 10.63 5.77 10.58 5.78 10.53 5.79 10.48 5.8 10.43 5.81 10.38 5.81 10.33 5.82 10.27 5.82 10.22 5.82 10.16 5.82 10.11 5.82 10.05 5.82 10.01 5.82 9.94 5.82 9.89 5.82 9.84 5.81 9.78 5.81 9.73 5.81 9.67 5.81 9.62 5.8 9.57 5.79 9.51 5.78 9.47 5.77 9.41 5.76 9.36 5.75 9.32 5.75 9.27 5.75 9.22 5.74 9.18 5.73 9.13 5.71 9.09 5.7 9.04 5.68 9.01 5.68 8.97 5.67 8.93 5.67 8.9 5.65 8.86 5.64 8.83 5.63 8.79 5.62 8.76 5.6 8.74 5.6 8.7 5.58 8.68 5.58 8.64 5.57 8.61 5.56 8.58 5.54 8.55 5.53 8.53 5.53 8.49 5.53 8.47 5.51 8.44 5.5 8.42 5.49 8.39 5.48 8.37 5.47 8.35 5.46 8.32 5.46 8.3 5.45 8.28 5.43 8.26 5.42 8.24 5.41 8.23 5.4 8.19 5.38 8.16 5.36 8.14 5.33 8.12 5.32 8.11 5.3 8.1 5.26 8.09 5.24 8.09 5.22 8.1 5.19 8.12 5.16 8.12 5.13 8.16 5.1 8.17 5.08 8.19 5.05 8.2 5.03 8.23 5.03 8.24 5 8.27 4.98 8.3 4.96 8.32 4.95 8.35 4.92 8.38 4.89 8.41 4.88 8.46 4.86 8.49 4.83 8.53 4.8 8.57 4.78 8.62 4.76 8.62 4.76 8.62 4.76"/><polygon class="cls-2" points="8.04 3.39 8.07 3.36 8.08 3.33 8.11 3.29 8.12 3.26 8.15 3.21 8.18 3.19 8.2 3.15 8.23 3.11 8.26 3.07 8.29 3.03 8.31 3 8.35 2.95 8.38 2.91 8.41 2.87 8.44 2.83 8.48 2.79 8.52 2.73 8.55 2.7 8.59 2.65 8.63 2.61 8.67 2.56 8.71 2.53 8.74 2.48 8.79 2.44 8.83 2.4 8.86 2.35 8.91 2.32 8.95 2.27 8.99 2.23 9.03 2.2 9.08 2.16 9.13 2.13 9.17 2.1 9.21 2.06 9.25 2.03 9.3 1.99 9.34 1.97 9.39 1.94 9.43 1.92 9.47 1.9 9.52 1.87 9.56 1.84 9.6 1.84 9.66 1.82 9.7 1.8 9.73 1.79 9.78 1.78 9.83 1.78 9.87 1.78 9.91 1.78 9.96 1.78 10 1.78 10.04 1.78 10.08 1.8 10.12 1.81 10.16 1.84 10.2 1.84 10.24 1.87 10.28 1.9 10.31 1.93 10.35 1.97 10.39 1.99 10.42 2.04 10.46 2.09 10.49 2.13 10.53 2.18 10.54 2.22 10.57 2.27 10.58 2.32 10.6 2.36 10.61 2.4 10.62 2.45 10.62 2.49 10.62 2.53 10.62 2.57 10.62 2.62 10.61 2.66 10.61 2.71 10.59 2.74 10.58 2.79 10.57 2.83 10.54 2.87 10.53 2.91 10.5 2.95 10.48 2.99 10.46 3.03 10.42 3.06 10.39 3.1 10.35 3.14 10.33 3.16 10.29 3.21 10.25 3.24 10.22 3.28 10.18 3.3 10.13 3.34 10.09 3.38 10.04 3.41 10.01 3.44 9.96 3.46 9.91 3.5 9.86 3.52 9.81 3.56 9.77 3.58 9.72 3.61 9.67 3.64 9.62 3.66 9.57 3.69 9.52 3.72 9.47 3.73 9.42 3.76 9.37 3.78 9.32 3.8 9.28 3.83 9.23 3.85 9.18 3.86 9.13 3.88 9.09 3.9 9.03 3.91 8.99 3.93 8.95 3.94 8.91 3.96 8.86 3.98 8.82 3.99 8.78 4 8.74 4.01 8.7 4.02 8.67 4.03 8.64 4.05 8.61 4.05 8.57 4.06 8.53 4.07 8.5 4.08 8.47 4.08 8.43 4.08 8.41 4.09 8.38 4.1 8.35 4.1 8.31 4.11 8.29 4.12 8.26 4.13 8.23 4.14 8.2 4.15 8.18 4.15 8.15 4.15 8.12 4.15 8.11 4.16 8.08 4.16 8.05 4.16 8.03 4.16 8.01 4.16 7.99 4.16 7.97 4.16 7.95 4.16 7.92 4.16 7.92 4.16 7.9 4.16 7.86 4.16 7.85 4.15 7.82 4.14 7.8 4.12 7.78 4.09 7.78 4.08 7.76 4.04 7.77 4.01 7.77 4 7.77 3.97 7.77 3.94 7.78 3.93 7.78 3.91 7.79 3.88 7.8 3.85 7.81 3.83 7.82 3.79 7.84 3.77 7.85 3.73 7.86 3.71 7.88 3.67 7.9 3.64 7.92 3.59 7.94 3.57 7.96 3.51 7.99 3.48 8.02 3.44 8.04 3.39 8.04 3.39 8.04 3.39"/><path class="cls-2" d="M7.64,4.89a1,1,0,1,1-1-1A1,1,0,0,1,7.64,4.89Z"/><path class="cls-1" d="M7.6,13.13H5.76c1,0,.53-7,.53-7a.77.77,0,0,0,.77,0S6.82,13.13,7.6,13.13Z"/></g></g></svg>